<?xml version="1.0" encoding="UTF-8"?><svg id="Ebene_2" xmlns="http://www.w3.org/2000/svg" viewBox="0 0 218.65 348.16"><g id="Ebene_1-2"><path d="m23.58,201.04c2.94,1.06,5.71,2.47,8.39,4.07,2.92,1.74,5.89,3.38,8.93,4.9.81.41,1.58.9,2.38,1.31,1.25.64,1.68.54,2.42-.63.23-.37.41-.75.82-.97.03.09.1.18.08.22-1.26,2.04-1.27,2.06-.92,2.27.78.47,1.56.92,2.35,1.36,1.18.67,2.46.99,3.79,1.22,2.56.44,5,1.38,7.52,1.98,3.56.85,6.66,2.56,9.61,4.64-2.83-1.37-5.5-3.19-8.56-3.91-3.07-.71-5.99-2.06-9.28-2.26,1.86,1.03,3.6,2.05,5.39,2.96,2.71,1.37,5.44,2.7,8.2,3.95,1.49.68,2.64,1.82,3.99,2.69.79.5,1.14.62,1.62-.38,1.16-2.44,1.65-4.93,1.68-7.66.02-2.11.51-4.22.47-6.37-.01-.96-.31-1.73-.94-2.33-.86-.82-1.54-1.85-2.64-2.4-.17-.08-.35-.25-.41-.42-.77-2.05-2.67-3.2-3.88-4.9-.43-.61-.95-1.17-1.66-1.51h0c.19-.03.48-.14.56-.06,2.43,2.61,5.39,4.67,7.86,7.59,0-1.33.17-2.52-.04-3.63-.41-2.22-.63-4.44-.84-6.68-.32-3.42-.6-6.84-.76-10.28-.04-.9.1-1.76.41-2.64,2.05,5.28,1.69,10.97,3.04,16.37,1.34,5.36,3.46,10.54,4.13,16.09.84-2.15,2-4.23,2.41-6.46.22-1.22-.39-2.75-.5-4.15-.13-1.6-.7-3.18-.33-4.82l-.02.02c.4.98.2,2.06.5,3.06.44,1.49-.02,3.08.59,4.68.74-.8.91-1.84.99-2.7.41-4.15,2.31-7.86,3.25-11.85.62-2.62,1.31-5.21,1.98-7.82.16-.62-.3-.91-.69-1.13-3.73-2.13-7.25-4.59-11.04-6.64-1.09-.59-2.13-1.3-3.15-2.28.69-.1,1.08.26,1.44.53,2.48,1.83,5.26,3.16,7.85,4.81,1.66,1.06,3.38,2.02,5.01,3.12.78.53.88.19.9-.47.01-.32.11-.61.2-.92.17-.63.08-1.1-.58-1.6-2.68-1.99-5.12-4.28-7.38-6.73-1.03-1.11-.89-1.4.65-1.68.79-.14.39-.45.16-.78-.44-.64-.33-.92.52-1.31-.24.42-.16.73.11,1.17,1.24,2.06,3.3,3.32,4.83,5.09,1.86,2.15,4.12,3.75,6.52,5.17,3.48,2.06,6.83,4.27,9.67,7.17,1.61,1.65,3.72,2.51,5.57,3.77.45.3,1.06.3,1.66-.16-2.63-2.11-4.81-4.57-7.02-7,1.62,1.35,3.06,2.88,4.6,4.32,2.86,2.67,5.64,5.47,9.89,5.79,1.95.14,3.89.28,5.82-.06,2.74-.49,5.42-1.27,8.11-1.99,4.32-1.15,8.47-2.62,12.32-4.95,3.65-2.21,6.25-5.81,10.26-7.58,1.78-.79,3.03-2.53,5.12-2.99,1.21-.26,1.88-2.27,1.36-3.45-.74-1.68-1.78-3.1-3.29-4.25-1.2-.91-1.83-2.34-2.03-3.84-.21-1.56.85-2.66,1.77-3.72,1.34-1.56,1.49-2.51.33-4.04-1.07.78-.13,2.02-.63,2.99-.4-.66.4-1.99-1.16-1.76-.12.02-.25-.17-.16-.22.87-.49-.38-.82-.12-1.21.28-.28.46,0,.68.04.46.1.58-.35.81-.58.15-.16.05-.36-.11-.52-.26-.27-.47-.11-.74,0-.28.12-.62.08-.85.37-.8.98-1.95,1.38-3.04,1.91-3.45,1.69-7.26,2.55-10.5,4.7-.53.35-1.19.43-1.84.84.69.25,1.23.44,1.94.69-1.53,1.28-2.97,2.43-4.34,3.64-.33.29-1.16.36-.93.89.25.57.89.02,1.36.01.04,0,.09.11.18.22-.26.3-.55.51-.97.49-.18-.17-.4-.23-.65-.24-.26-.01-.62.15-.75-.17-.14-.37.23-.59.46-.75.92-.64,1.6-1.58,2.52-2.17.96-.62.94-1.23.54-2.08-.12-.25-.22-.51-.28-.77-.65-2.92-.66-5.88-.59-8.85.03-.99-.16-2,.11-2.97.08-.31.32-.61,0-.85-.24-.18-.5.03-.77.13-3.81,1.47-7.63,2.94-11.46,4.36-1.16.43-2.43.69-3.62.32-2.91-.91-5.97-1.4-8.67-2.94-.18-.11-.5-.41-.7-.02-.4.77-1.24,1.32-1.03,2.41.14.73.2,1.57-.02,2.26-.33,1.01.21,1.26.92,1.34,2.55.3,4.93,1.26,7.4,1.87,3.37.83,6.76,1.44,10.21,1.74,1.68.15,3.3-.27,4.93-.56-1.45,1.08-3.12,1.73-4.87,1.37-2.96-.61-5.95-1.01-8.91-1.61-3.88-.78-7.76-1.61-11.55-2.78-1.45-.45-2.83-1.23-4.44-1.04l-.22-.22c-.09-.25-.06-.53-.38-.69-2.38-1.17-4.74-2.36-7.24-3.61.18.98.88,1.47,1.14,2.27-.31.04-.52.03-.72-.15-1.48-1.29-3.13-2.38-4.41-3.89-.46-.55-1.02-.67-1.7-.64-.79.03-.94.33-.52.96.44.65.91,1.28,1.37,1.91.13.18.45.34.23.58-.29.33-.5-.03-.67-.21-.75-.82-1.47-1.65-2.21-2.49-.35-.4-.67-.5-1.24-.3-2.38.84-4.3,3.44-4.3,5.95,0,.8-.1,1.61.02,2.39.37,2.38,1.11,4.59,3.17,6.12.38.28.83.61.84,1.23-.46-.76-1.57-.21-2.05-1.23-.34-.72-.79-1.5-1.4-2.18-.44.46-.85.9-1.27,1.32-.87.86-.91,2.18-.32,3.31.62,1.17,1.6,2.1,2.08,3.37-1.05-1.1-2.16-2.14-2.9-3.52-.41.26-.88.56-1.34.86.77-1.09.84-2.66,1.57-3.53,1.44-1.72,1.61-3.32,1.12-5.36-.3-1.28-.04-2.7,0-4.06,0-.19.12-.39-.07-.53-2.9-2.11-4.9-4.97-6.78-7.99.86,3.4,1,6.98,2.88,10.11-.15.19-.3.04-.43-.12-1.74-2.17-3.98-3.93-5.31-6.43-1.05-1.98-2.2-3.91-2.77-6.11-.34-1.3-1.18-2.39-1.68-3.65-1.25-3.15-1.83-6.47-2.71-9.71-.25-.91-.1-1.86-.44-3.09-.6,1.24-.41,2.29-.6,3.24-.36,1.74-.32,3.55-.33,5.33-.02,2.48.5,4.84,1.46,7.11.13.31.47.72,0,.89-.4.14-.77-.31-.86-.67-.91-3.59-2.34-7.04-2.55-10.82-.12-2.12-.39-4.24-.52-6.37-.2-3.32-.33-6.64-.23-9.96.11-3.53.3-7.06,1.54-10.43.07-.19.11-.38-.02-.5-2.43,2.1-5.2,3.74-7.55,5.91-.08-.08-.16-.16-.23-.24.71-.73,1.41-1.48,2.15-2.2,3.44-3.36,6-7.27,7.34-11.92.11-.39.31-.72.44-1.09.24-.67.38-1.28-.46-1.71-.56-.29-.89-.79-1.1-1.45-.43-1.38-1.15-2.67-1.52-4.06-.28-1.05-.13-2.24-.96-3.11-.71-.75-1.46-1.48-2.19-2.21-.17-.17-.66-.18-.35-.56.22-.27.4.08.57.2.36.25.68.55,1.06.75,1.71.92,2.13,2.48,2.39,4.27.33,2.19,1.31,4.1,3.24,5.39.56.38.89.13,1.4-.22,2.32-1.62,4.69-3.17,7.08-4.69,1.38-.88,2.32-2.21,3.59-3.21,2.73-2.16,5.4-4.41,7.92-6.8,2.35-2.24,4.47-4.72,6.7-7.08,1.63-1.72,2.88-3.74,4.49-5.53-.51.36-1.03.73-1.54,1.09.14-.43.43-.75.77-1.03,1.5-1.26,3.26-2.21,4.54-3.75.27-.33.63-.58,1.04-.95.03.74-.18,1.27-.46,1.78-.13-.15.15-.74-.37-.43-.4.24-.73.62-1,1.01-1.19,1.72-2.4,3.42-3.86,4.93-.81.83-1.5,1.76-2.25,2.65,2.4-.4,4.65-1.04,6.95-1.41.71-.11.81-.51.79-1.08.36.55.7.81,1.5.57,3.25-.98,6.65-1.15,9.99-1.64,3.79-.55,7.65-.47,11.47-.83,3.22-.31,6.44.23,9.66.31.89.02,1.81-.21,2.64.02.89.24,1.79.28,2.67.4,3.23.43,3.21.34,4.77-2.58.45-.85.58-1.62.18-2.47-.67-1.4-1.36-2.8-1.82-4.31.14,2.43.79,4.83-.06,7.25.11-3.08-.1-6.13-.57-9.19.24.13.36.27.44.44.77,1.63,1.44,3.31,2.32,4.88.81,1.45,1.91,2.74,2.49,4.32.34.92,1.09,1.54,1.6,2.34,1.08,1.68,2.16,3.38,3.32,5.01.36.5.54,1.31,1.2,1.42.62.1.98-.64,1.45-.99,2.89-2.15,5.95-4.11,7.85-7.36,1.53-2.61,2.52-5.37,2.94-8.37.24-1.68.31-3.39.64-5.03.54-2.69.8-5.38.74-8.11,0-.31-.13-.52-.33-.73-1.18-1.27-2.64-2.21-3.85-3.46-1.1-1.14-2.55-1.98-3.91-2.84-.74-.47-1.38-1.18-2.4-1.36.19.91-.25,1.67-.27,2.51-.03,2.02-.54,3.97-.96,5.92-.45,2.11-1.33,4.09-1.98,6.13-1.22,3.79-2.68,7.47-4.55,10.98-.3.57-.51,1.45-1.53,1.48.5-.8,1.01-1.49,1.41-2.27,2.04-3.97,3.48-8.16,4.95-12.36,1.39-3.97,1.93-8.07,2.66-12.15.09-.52.02-.95-.59-1.26-1.75-.89-3.39-1.97-5.15-2.86-4.86-2.46-9.64-5.08-14.64-7.27-.48-.21-1.17,0-1.45-.65,1.76.37,3.47.89,5.14,1.59,1.15.48,2.36.87,3.5,1.4.15.07.3.19.42.05.18-.19.1-.43.04-.67-.6-2.35-1.33-4.68-1.72-7.07-.49-2.99-1.13-5.98-.92-9.07.17-2.49-.04-5.01.56-7.46.43-1.75.94-3.47,1.45-5.19.14-.47.62-.5,1.01-.38.6.19.13.54.01.73-1.12,1.82-1.34,3.8-1.41,5.91-.11,3.67-.9,7.31-.78,10.98.14,3.94,1.11,7.75,2.43,11.48.43,1.23,1.28,1.7,2.22,2.21,1.56.84,3.22,1.51,4.71,2.48.43.28.65.36.84-.36.78-2.95,1.38-5.92,1.66-8.97.1-1.04.14-2.1.36-3.14.35,1.82.17,3.62-.05,5.44-.25,2.08-.76,4.09-1.19,6.12-.08.4-.2.78-.38,1.1-.26.45-.07.72.27.87,1.33.57,2.47,1.47,3.68,2.21,1.11.67,2.17,1.63,3.2,2.53.92.8,1.89,1.56,2.85,2.31.46.36.81.41.93-.35.19-1.23.5-2.45.68-3.69.29-1.88.82-3.71,1.01-5.63.1-1.04.21-2.12.33-3.16.42-3.61.55-7.26.9-10.88.08-.86.24-1.74.23-2.72.56.32.17.78.54,1.1.1-1.52,1.18-2.71,1.14-4.23,0-.12.15-.31.27-.36.26-.11.33.14.39.32.11.32.19.66.3,1.04.64-.31.32-.9.43-1.34.29-1.16.5-2.33.83-3.48.35-1.22.03-2.41-.19-3.55-.32-1.64-.89-3.22-.79-4.95.74.95.93,2.13,1.21,3.24.41,1.59.5,3.26.94,4.84.23.81-.36,1.46-.11,2.19.06.18-.17.52.25.52.2,0,.49-.56.57.02.05.38.24.9-.22,1.21-1.03.7-1.17,2.05-2.13,2.84-.95.78-1.38,2.02-2.43,2.77-.83.6-.91,1.68-.92,2.59,0,2.86-.58,5.67-.67,8.52-.07,2.3-.43,4.61-.77,6.89-.19,1.33.6,2.17,1.26,3.08.28.38.52.75.8,1.44-1.1-.71-1.23-1.91-2.17-2.4-.72,1.37-.67,2.96-1.24,4.37-.18.43,1.1,2.03,1.56,2.08.28.03.28-.2.39-.36,2.23-3.19,3.63-6.7,4.39-10.54.6-3.05.8-6.14,1.27-9.2.33-2.14.47-4.34.32-6.54-.06-.94-.01-1.89.13-2.83.09,2.11.59,4.18.46,6.3-.33,5.52-.42,11.07-2.28,16.36-.81,2.29-2.05,4.4-3.47,6.37-.48.67-.63,1,.13,1.7,1.64,1.51,3.12,3.21,4.55,4.93,1.09,1.3,2.16,2.61,3.15,4,1.7,2.42,3.2,4.96,4.77,7.46,2.91,4.61,5.4,9.45,7.82,14.33,1.02,2.07,1.77,4.27,2.65,6.41.15.36.28.74.47,1.09,1.22,2.33,1.35,2.04,3.07,1.12.2.77-.64,1.18-.58,2.05.71,0,1.48-.01,2.25,0,.26,0,.61-.14.75.18.15.32-.16.52-.36.68-1.27,1.04-2.66,1.84-4.28,2.17-.28.06-.68-.16-.77.33-.07.39.03.64.42.86.56.32.92.66-.03,1.08-.72.32-1.53.71-.73,1.84.3.42.31,1.27-.85.91-.8-.25-1.05.19-.65.99.71,1.45.7,1.5-.78,2.15-.88.39-1.61,1-2.41,1.5-.76.47-1.43,1.09-2.27,1.75.6-1.31,4.24-3.81,5.81-4.07-.4-.55-1.08-.83-1-1.72.08-.97.74-.97,1.37-1.12-1.23-2.24-1.1-1.52,1.46-2.64-1.26-1.36-1.02-2.18.81-2.74.15-.04.28-.15.42-.22.8-.39,1.6-.78,2.58-1.25-.71-.21-1.21.15-1.77-.13-.66-.33-.47-.94-.74-1.29-.25-.33-1.11.03-1.43-.74-.73-1.77-1.64-3.47-2.3-5.26-.45-1.24-1.09-2.36-1.68-3.52-2.19-4.28-4.34-8.59-6.67-12.8-2.33-4.19-5-8.18-7.93-11.99-1.21-1.57-2.44-3.13-4.05-4.53-.22,1.16-.23,2.26-.31,3.31-.21,2.84-.59,5.65-.94,8.47-.34,2.74-.75,5.52-1.94,8.06-.58,1.24-1.5,2.29-2.36,3.38-.99,1.26-2.26,2.12-3.41,3.14-1.27,1.12-2.43,2.38-3.99,3.15-.57.28-.85.78-.29,1.46,2.6,3.2,4.87,6.67,7.84,9.58,1.3,1.27,2.74,2.35,4.15,3.47,1.36,1.08,2.76,2.11,4.06,3.26,1.57,1.4,3.17,2.77,4.62,4.31.69.74,1.09,1.63,1.64,2.44.23.34.21.66.11,1.13-1.43-.76-1.62-2.57-3.07-3.37.64,2.62,2.86,4.23,3.77,6.6-.17.31-.98-.14-.8.54.14.53.6.4,1.08.27.68-.19,1.08-.55,1.39-1.16.64-1.24,1.58-2.25,2.68-3.14-.87,1.28-1.71,2.58-2.61,3.85-.35.49-.86.84-1.49.87-.82.04-.68.44-.41.95,1.3,2.43,2.49,4.94,3.32,7.55,1.06,3.36,2.11,6.78,1.18,10.39-.05.19-.15.36-.23.54-.1.22.01.68-.41.55-.35-.11-.2-.45-.09-.71.52-1.31-.13-2.57-.18-3.86-.11-2.66-1.19-5.09-2.27-7.49-.29-.65-.67-1.23-1.22-1.79,4.12,12.23,3.65,24.03-3.1,35.26,1.32-3.15,1.34-6.53,1.64-9.89-1.43,2.79-2.34,5.78-3.66,8.6-1.38,2.97-3.23,5.45-5.83,7.74,2.32.02,4.41-.91,6.67-.47-.74.33-1.44.42-2.17.5-2.49.27-5.02.32-7.33,1.48-.43.22-.49.11-.47-1.13-1.92,2.1-4.68,2.68-6.72,4.75.67-.02,1.35-.34,1.21.66-.1.7.56.73,1.07.82.81.14,1.58-.15,2.33-.35,3.04-.8,6.14-1.06,9.27-1.04.72,0,1.34.29,2.16.81-4.58.08-8.56,1.74-12.69,2.77-.38.09-.77.23-1.08.45-.61.43-.79.82.09,1.27,1,.52,1.68,1.42,2.97,1.68,3.06.62,6.03.62,8.95-.46.98-.36,2.06-.43,3.19-1.18-.53-.05-.81-.09-1.09-.1-.75,0-1.19-.51-1.42-1.09-.21-.52.06-1,.43-1.5.79-1.07,3.65-1.29,4.92-.64,1.18.6,1.26,1.88.1,2.9,2.18.25,4.05-.43,5.95-1,.99-.29,1.85-1.18,3.02-.73l-.02-.03c-3.21,1.41-6.46,2.63-10.07,1.98,0,0,0-.08,0-.08.97-.23,1.46-.98,1.33-1.83-.12-.82-1-1.09-1.76-1.04-.83.05-1.73-.21-2.49.39-.4.31-.97.58-.83,1.15.16.69.68,1.14,1.43,1.26.48.07.93-.07,1.44-.25-.64,1.46-2.05,1.58-3.39,2.1,1.16.65,2.16,1.2,3.37,1.88-.83.24-1.24-.16-1.69-.38-.48-.24-.95-.49-1.46-.68.33.51.97.73,1.29,1.41-3.69,1.2-7.38,2.11-11.3,1.58,2.49,1.14,5.2,1.5,7.83,2.18-3.17.61-6.26.14-9.35-.86.46,2.35,1.99,3.86,3.51,5.37.18.18.19.32.15.52,0,0,0,0,0,0-1.04-.91-1.96-1.22-4.31-1.36,1.52.55,1.09,1.13.58,1.92-.71,1.09-1.61,2.03-2.6,2.76-1.35,1-1.05,2.22-.89,3.45.1.75.41,1.48.63,2.27,3.89-2.02,7.11-5.12,11.22-6.71-3.4,2.27-6.79,4.56-10.23,6.78-.73.48-.99,1.05-.81,1.79.78,3.13.88,6.37,1.59,9.51.46,2.06.95,4.12,1.38,6.19.43,2.09.64,4.23,1.31,6.27l-.02-.02c.56,3.37,1.53,6.69,1.14,10.38.51-.36.61-.73.71-1.07,1.2-3.79,2.54-7.53,3.26-11.48.8-4.36,2.03-8.62,3.27-12.87.29-.98.52-1.96.53-3.01.02-2.4.6-4.75.69-7.16,1.21,4.18.44,8.37-.05,12.55-.12-3.04.59-6.06.25-9.12-1,9.2-3.07,18.18-5.51,27.09,1.24-1.85,2.48-3.7,3.74-5.54.56-.82,1.19-1.59,1.79-2.39h0c.01.59.29.09.31.05.87-1.42,2.09-2.54,3.21-3.74.52-.56,1.2-.9,1.83-1.3.25-.16.52-.26.75-.02.18.2.06.43,0,.67-.4,1.78-1.39,3.23-2.56,4.6.47-1.67,2.14-2.85,2.03-4.87-2.21,1.08-3.38,3.05-4.78,4.79-2.75,3.42-4.9,7.22-7.12,10.97-1.05,1.76-1.06,2.2-.11,3.46.7.93,1.69.69,2.51.56,2.82-.46,5.6-1.14,8.3-2.15,1.99-.75,3.96-1.5,5.82-2.53.9-.5,1.7-1.14,2.61-1.63.83-.45,1.04-3.05.61-4.24-.54-1.5-1.3-2.87-2.22-4.15-.73-1.01-.79-2.16-.86-3.37-.06-.96.66-2.16-.78-2.88-.44-.22-.78-1.02-.6-1.74-.5-.05-.83.19-1.15.41-.19.13-.42.39-.59.1-.49-.87-.96-.43-1.62-.18-.77.29-.85-.49-.67-.94.28-.7.28-1.06-.55-1.25-.37-.09-.57-.65-.24-.87,1.05-.7.43-2.42,1.83-2.86.21-.07.07-.24-.01-.38-.85-1.52-1.1-3.16-1.12-4.89,0-.82-.35-1.64-.57-2.58.97.79,1.11,1.93.97,2.75-.23,1.28.68,2.27.48,3.48-.03.21.32.55.56.71.68.46.88,1.27,1.35,1.83.71.85,1,1.67,1.04,2.76.03.96,1.53,1.43,1.12,2.67,0,.02.1.1.17.13.75.27.88.52.94,1.52.09,1.38-.14,2.76.19,4.15.17.7.56,1.08.96,1.56,1.3,1.56,2.41,3.21,2.42,5.36,0,.48-.05.89-.37,1.33-.95,1.32-.44,2.73-.02,4.09.11.36.17.7.14,1.05-.19,2.24.28,4.36.89,6.52.28,1,.72,2.18.22,3.33-.18.4.01.72.4.87.58.22.9.68,1.07,1.21.59,1.9,1.86,3.22,3.42,4.37,1.05.78,1.27,2.07,1.38,3.24.19,2.14.05,4.21-1.3,6.13-.88,1.26-.77,2.99-1.15,4.5-.88,3.58-.74,7.1.39,10.69.78,2.48,1.01,5.15.51,7.84-.37,2,.12,4.01.46,6,.07.39.39.45.63.36,1.28-.49,2.28.32,3.3.78,2.66,1.2,5.19,2.64,7.71,4.12,1.35.79,2.14,2.26,3.65,2.88.58.24.44.95.27,1.51-.72,2.37-1.7,4.64-2.74,6.89-1.76,3.83-3.48,7.67-5.44,11.41-.78,1.49-1.6,2.96-2.16,4.56-.39,1.13-.34,1.57.76,1.9.84.25,1.44.78,2.05,1.35.31.3.6.85,1.1.2.11-.13.23-.07.36.07,1.49,1.58,3.25,2.78,5.26,3.61-.07-.5-.57-.61-.84-.93.73-.02,3.46,1.2,3.79,1.91.44.92.26,1.94-.14,2.87-.35.84-.74,1.66-1.16,2.46-.77,1.48-2.42,1.9-4.3,1.52.66,1.06,1.26,2.04,1.86,3.02.61,1,1.35,1.98.5,3.23-.18.26.07.56.22.75,1.62,2.04,2.89,4.3,4.28,6.5,2.46,3.88,5.08,7.65,7.36,11.65.04.06.01.16.01.24h-1.68c-.98-1.56-1.77-3.22-2.64-4.85-1.55-2.91-3.39-5.66-5.12-8.48-.96-1.57-1.93-3.14-2.89-4.73-.28-.47-.56-.57-1.06-.26-.61.37-.07.54.05.82.53,1.21,1.44,2.16,2.16,3.23,3.1,4.61,6.25,9.18,8.53,14.27h-12.95c-1.8-4.55-4.06-8.9-5.62-13.55-.2-.58-.58-.81-1.17-.52.01.53.49.8.68,1.23,1.48,3.3,3,6.58,4.38,9.92.39.94,1.12,1.8,1.01,2.92h-65.45c.18-1.49,1.01-2.78,1.36-4.22.09-.35.32-.61-.18-.87-.9-.46-1.78-.99-2.64-1.52-.57-.35-1.67-.51-.62-1.59.2-.21.13-.8.02-1.17-.28-.98-.4-1.99-.6-2.98-.25-1.23-.45-2.46-1.86-3.11-1.31-.6-2.03-1.77-2.19-3.25-.07-.67-.46-1.21-1.01-1.54-1.11-.67-2.23-1.37-3.43-1.86-2.48-1-5.01-1.86-7.44-2.99-1.19-.56-2.5-2.34-2-3,.77-1.03.63-2.27.84-3.33.46-2.39,1.06-4.72,1.7-7.06.43-1.57.73-3.1-.87-4.3-1.22-.91-2.66-.54-3.98-.78-.59-.1-.61.62-.57,1.1.13,1.4-.26,2.4-1.51,3.31-2.24,1.64-3.75,1.87-6.01.36-.73,1.09-1.3,2.3-2.91,2.38-.57.03-.98.41-1.18,1.13-.36,1.31-1.12,2.78-2.35,3.06-1.77.41-1.82,1.36-1.7,2.69.02.24.02.48-.01.72-.34,2.84-1.04,5.64-1.14,8.52-.03.82.13,1.62.02,2.43-.24,1.92-.64,3.78-.66,5.77-.02,2.27-.1,4.97-2.82,6.23-.27.13-.48.43-.66.69-.7,1.02-1.61,1.48-2.86,1.24-.45-.09-.62.11-.48.63.3,1.09.51,2.2.76,3.3h-18.46c-.22-1.15-.55-2.29-.62-3.44-.06-.94-.55-1.31-1.3-1.35-1.85-.11-3.51-.7-5.01-1.78-.5-.36-.93-.18-1.12.37-.74,2.19-1.93,4.16-2.98,6.2H23.97c2.43-5.46,5.12-10.8,7.38-16.33-.19-.08-.37-.17-.56-.25-2.65,5.46-5.32,10.92-7.54,16.58h-10.31c1.37-3.12,2.59-6.3,4.04-9.39.77-1.63,1.63-3.22,2.31-4.89.2-.87.99-1.47,1.15-2.3.21-1.1,1.61-1.73,1.14-3.31-.83,1.67-1.56,3.14-2.3,4.6-.18.35-.17.68.01,1.02-.61-.16-.59.41-.73.7-1.12,2.3-2.14,4.65-3.32,6.93-1.17,2.26-2.48,4.44-3.74,6.65h-.72c2.74-5.64,5.5-11.28,8.2-16.95.32-.67.61-1.35.98-2,.44-.76.87-1.47.58-2.48-.32-1.09.33-2.14.86-2.99,1.31-2.09,2.08-4.42,3.23-6.58,1.83-3.47,3.53-7,5.27-10.52.66-1.34,1.26-2.71,1.88-4.07.05-.1,0-.29.07-.34,1.76-1.31.25-1.58-.61-2.24-1.82-1.4-3.64-2.84-4.65-5-.38-.8-1.08-1.08-1.92-1.16-1.72-.18-3.3-.79-4.85-1.56-1.13-.56-1.33-1.74-1.93-2.64-1.84-2.74-2.8-5.72-2.63-9.14.16-3.22.16-6.42.77-9.61.16-.82.88-.59,1.08-1.19.42-1.32,1.32-2.4,2.02-3.58.63-1.06,1.64-1.58,2.61-2.17.36-.22.7-.29.45-.86-.81-1.84-.14-3.43,1.08-4.79.67-.74.61-1.13-.18-1.63-4.91-3.14-9.8-6.32-14.72-9.45-2.53-1.61-4.97-3.33-7.32-5.18-1.56-1.24-.96-3.04-.67-4.55.87-4.41,3.16-8.19,5.72-11.81.51-.72,1.07-1.24-.13-2.06-.72-.49-.37-1.81-.19-2.7.31-1.49.59-3.07,1.33-4.36,1.55-2.67,2.6-5.63,4.74-7.98,1.53-1.67,2.82-3.56,4.22-5.36.53-.68.97-1.55,2.15-.71-.97.81-1.87,1.7-2.68,2.68-1.76,2.13-3.51,4.25-4.94,6.63-1.26,2.11-2.65,4.15-3.57,6.44-.65,1.63-.45,3.41-.65,5.12-.03.24.32.48.6.13.11-.14.17-.5.23-.49.77.09,1.47.17,1.22-1.01-.17-.77.75-1.28.55-2.12-.18-.76.17-1.44.52-2.14.91-1.78,1.71-3.62,2.55-5.44.68-1.49,1.98-2.55,2.79-3.94,1.77-3.04,4.71-4.8,7.4-6.83.38-.29.42-1.02,1.13-.88.24.05.52.06.25.42-.36.3-.72.61-1.09.91-2.58,2.03-4.97,4.25-7.04,6.81-1.69,2.09-3.43,4.12-4.19,6.76-.41,1.41-1.56,2.5-1.69,3.99-.1,1.06-.11,2.11-.6,3.11-.2.41.02.83.49,1.08.98.51,1.94,1.05,2.9,1.6,3.22,1.85,6.4,3.75,9.64,5.54,3.45,1.9,6.58,4.32,10.23,5.9,2.88,1.25,5.47,3.11,8.33,4.45,2.97,1.4,5.95,2.8,8.75,4.52,1.93,1.19,4.07,1.89,6.1,2.85,3.14,1.5,5.91,3.64,9.11,5.01,3.83,1.64,7.24,4.05,10.97,5.86,2.63,1.27,5.39,2.31,7.91,3.76,4.96,2.86,10.06,5.46,15.03,8.31,4.41,2.53,8.74,5.18,13.07,7.85.59.37,1.17,1.02,2.36.85-1.08-.42-.87-1.42-1.67-1.89-1.84-1.08-3.86-1.84-5.5-3.33-.98-.88-1.4-1.76-1.54-3.01-.15-1.3.63-2.64-.2-3.9-.05-.08.07-.28.12-.43.74-2.42,1.32-4.89,2.64-7.19-1.16.2-2.12-.17-3.11-.34-.84-.14-1.36-.71-1.76-1.45-.27-.5-.55-1.12-1-1.4-2.3-1.45-4.66-2.81-7-4.2-1.26-.74-2.54-1.44-3.79-2.19-.34-.2-.71-.47-.08-.83.96-.56.75-.92-.16-1.38-4.15-2.12-8.6-3.59-12.6-6.02-.37-.22-.63-.23-1.03.08-1.47,1.14-3.18,1.3-4.68.31-1.58-1.05-3.26-1.92-4.86-2.91-1.46-.9-1.63-1.63-.84-3.2.19-.39.42-.76.6-1.16.24-.54.61-1.08.63-1.64.03-.84-.99-.54-1.38-.99-.05-.06-.1-.13-.17-.16-2.35-.99-4.4-2.59-6.9-3.29-.6-.17-1.27-.61-1.36-1.3-.18-1.51,1.48-2.72,2.99-2.36,2.11.51,3.96,1.69,6.01,2.35.48.16,1.01.45,1.08-.29.08-.75.73-1.34.67-1.98-.08-.84-1.15-.78-1.75-1.11-1.34-.73-2.16-2.2-3.77-2.54-.87-.19-1.75-.53-2.52-.98-3.77-2.23-7.81-3.94-11.59-6.16-2.38-1.39-4.96-2.43-7.4-3.73-3.86-2.06-7.66-4.25-11.38-6.55-2.28-1.41-4.81-2.4-6.97-4.02Zm129.29-47c.34.19.62.05.85-.2.94-1.02,1.99-1.93,3.06-2.81,1.29-1.05,2.05-2.55,3.21-3.72.61-.62,1.22-1.26,1.41-2.18-2.83,2.98-5.67,5.96-8.5,8.95-1.98,1.09-3.63,2.61-5.2,4.22,1.33-.58,2.37-1.57,3.43-2.5.61-.53,1.65-.7,1.73-1.76Zm-114.36,159.98c-.65,1.75-1.54,3.4-2.59,4.92-2.23,3.23-3.65,6.86-5.36,10.34-.18.37-.24.83.12.94.83.24,1.08,1.16,2.02,1.44-1.81-2.2-.52-4.06.44-5.95.14-.28.31-.56.45-.84,1.57-3.14,3.15-6.27,4.71-9.42.23-.45.51-.92.19-1.46.43.25.48-.18.56-.37.76-1.72,1.51-3.46,2.28-5.18.41-.92,1.03-1.83.96-2.96-.79,1.35-1.47,2.76-2.22,4.12-.77,1.39-1.12,2.91-1.56,4.4Zm145.61-88.2l.03.03c.92-.68,1.7-1.44,1.43-2.74-.31-1.48.21-3-.35-4.5-.33-.87-.53-1.15-1.32-.47-.44.38-1,.62-1.51.92-2.69,1.6-5.62,2.59-8.57,3.58-1.11.37-2.71.16-2.97,1.93-.04.27-.38.23-.59.31-1.8.72-3.66.42-5.52.31,2.02-.56,4.31-.01,6.04-1.56-2.37.31-4.77.62-7.16.93-.29.04-.42.18-.42.46,0,.29.02.55.41.6,1.17.16,2.26.64,3.42.9,1.39.3,2.91.04,4.23.99-.25.02-.44.03-.63.05-2.2.2-4.18-.61-6.21-1.27-1.09-.35-1.5-.12-1.5,1.03,0,.62-.5,1.54.41,1.88,1.91.72,3.85,1.34,5.88,1.7,1.78.32,3.54.77,5.57,1.22-1.17.4-2-.02-2.84-.14-2.2-.32-4.48-.12-6.56-1.1-2.68-1.25-2.62-1.24-2.8,1.79-.05.79.26,1,.83,1.2,2.32.8,4.7,1.21,7.15,1.45,2.23.22,4.44.43,6.61-.1,3.1-.75,5.92-2.31,8.94-3.32.42-.14.67-.5.7-1.01.09-1.36-.02-2.71-.34-4.02-.34-1.39-.57-1.45-1.85-.99-.13.05-.31-.03-.47-.05Zm-74.03-115.07c0,.84.03,1.52,0,2.2-.13,2.15-.65,4.2-1.99,5.91-1.93,2.46-7.15,3.28-9.67,1.36-2.56-1.96-4.64-4.39-4.81-7.89-.02-.46-.25-.85-.54-1.16-.67-.73-1.39-1.39-2.07-2.11-.37-.39-.82-.32-1.23-.22-.49.11-.29.59-.3.91-.05,1.8.54,3.47,1.04,5.16.09.32.2.72-.03.9-.33.27-.57-.14-.77-.35-.47-.48-.92-.97-1.35-1.5-1.03-1.25-1.79-2.68-2.9-3.87-.76-.81-.94-.26-1.16.33-.09.25-.05.55-.03.83.1,2.26-.02,4.51.23,6.78.3,2.82.63,5.65,1.22,8.4.86,4.01,2.2,7.9,3.06,11.92.38,1.78,1.75,2.98,3.15,4.1.59.48.79.43,1.05-.22,1.26-3.13,3.51-5.69,5.04-8.67.08-.15.12-.31.32-.26.27.07.24.32.19.48-.08.22-.25.4-.38.6-1.53,2.34-3.05,4.69-4.39,7.14-.94,1.73-.89,1.92.66,3.1.19.14.41.23.61.35,1.65,1,3.32,1.97,4.94,3.02,2.32,1.51,4.7,2.85,7.34,3.73.75.25,1.17.13,1.64-.4,1.38-1.57,2.71-3.2,4.1-4.77.91-1.02,1.97-1.93,2.73-3.12.45-.7,1.26-1.42,2.03-1.6,1.18-.27,2.42-.49,3.72-.14,1.91.52,3.52,1.32,4.79,3.15-1.94-.44-3.68-.78-5.38-1.25-.44-.12-.62-.09-.88.23-2.59,3.08-4.92,6.38-7.71,9.3-.3.32-.56.48.14.79,2.27.99,4.66,1.58,6.98,2.4,1.31.46,2.61.97,4.03.29.81-.38,1.68-.65,2.54-.93,2.89-.95,5.54-2.51,8.43-3.37,4.43-1.31,8.58-3.25,12.81-5.05,1.87-.8,3.14-2.19,4.36-3.72,1.37-1.72,2.92-3.32,3.37-5.59.09-.46.13-.93.29-1.37.71-2.01.78-4.15,1.29-6.19.34-1.33.05-2.67.43-3.99.45-1.57.76-3.2.89-4.83.26-3.2.39-6.42.29-9.64-.01-.49.04-1-.5-1.39-.9,1.95-2.06,3.66-3.82,4.93.89-1.81,1.33-3.69,1.27-5.69-.02-.52-.04-1.17-.66-1.22-1.03-.08-2.01-.4-3.07-.35-.75.04-.95.26-.93.98.02.89.35,1.71.17,2.68-.35,1.95-1.23,3.63-2.05,5.36-1.14,2.4-4.74,4.43-7.41,4.2-3.38-.28-6.44-3.11-6.91-6.49-.14-.99-.12-1.76-1.49-.78.85-.92,1.3-1.77,1.09-2.98-.13-.76-.34-.71-.8-.43-.73.43-1.43.89-2.38,1.48.54-1.09.95-1.93,1.36-2.77-1.29,1.22-2.67,2.3-4.02,3.37-1.3,1.03-2.71,2.05-4.49,2.48.07-.57.44-.78.72-1.04,1.04-.98,2.12-2.01,2.78-3.24,1.98-3.67,3.83-7.42,4.96-11.46.17-.6.05-.91-.69-1.04-.51-.09-1.19-.04-1.66-.66.59-.13,1.08-.18,1.55.03.89.4,1.26-.05,1.37-.85.22-1.58.5-3.17.57-4.76.15-3.33-.05-6.63-.78-9.9-.11-.51-.2-1.03-.72-1.03-.54,0-.6.57-.71,1.04-.56,2.28-.98,4.61-1.79,6.8-.84,2.27-1.7,4.55-2.71,6.78-1.09,2.4-2.61,4.34-4.51,6.04-1.77,1.58-3.63,3.05-5.42,4.61-1.18,1.03-2.22,2.23-3.47,3.19-.3.23-.59.47-.32,1,.17.32.44.74.27,1.19-1.12-.02-1.87-.84-2.95-1.26Zm45.25,227.56c3.01,1.19,5.26,3.42,8.33,4.02,1.22.24,2.4,1.07,3.63-.1,1.37-1.3,2.88-2.44,4.43-3.54.48-.34,1.29-.78,1.15-1.36-.28-1.13-.08-2.17.25-3.17.79-2.43.62-4.85.1-7.26-.31-1.46-.23-1.66,1.24-1.45.26.04.53.15.77.28,1.65.93,3.38,1.73,4.93,2.83.29.21.59.47,1.33.27-2.68-1.49-4.74-3.4-7.12-5.28.47,0,.74-.08.92.01,2.25,1.04,4.66,1.73,6.77,3.08.51.32.76.42,1.12-.22,1.56-2.79,2.77-5.75,4.14-8.63.07-.15.42-.43,0-.57-.7-.23-.27-.69-.29-1.07,0-.2.37-.46-.01-.58-1.29-.4-1.64-1.43-1.86-2.68,1.27-.16,2.36.16,3.18,1.13.25.3.36.53.69.21.29-.29.38-.6-.06-.88-.7-.44-1.36-.96-2.1-1.33-3.53-1.77-7.09-3.48-10.37-5.71-1.25-.85-2.72-1.37-4.16-2.08,0,.64.87.47.61,1.05-.2.44-.65.37-1.05.39-.92.03-1.8-.06-2.68-.4-2.64-1.04-5.06-2.43-7.28-4.22-.94-.75-1.6-1.85-2.55-2.41-1.2-.71-2.42-1.44-3.67-2.09-2.43-1.28-4.94-2.41-7.25-3.96-2.35-1.58-4.87-2.93-7.52-4-.69-.28-1.21-.29-1.65.35-.31.45-.78.57-1.27.46-1.23-.27-2.51-.42-3.65-.9-3.12-1.33-6.16-2.85-9.28-4.2-2.56-1.11-5.1-2.29-7.75-3.2-.57-.2-.85-.14-.87.46,0,.19.11.31-.16.42-.91.37-1.1,1.15-1.02,2.03.05.56-.17.92-.74.72-2.25-.8-4.66-1.14-6.77-2.37-.52-.31-.82-.52-.5-1.18.15-.31.18-.8-.47-1.03.08,1.17-.35,2.18-.62,3.23-.59,2.36-1.19,4.71-3.98,5.46-.11.03-.34,0-.23.43,2.62.48,3.94,2.68,5.24,4.7,1.75,2.74,3.17,5.7,4.72,8.57.12.21.24.56.45.47,1.17-.48,2.26.36,3.4.14,1.16-.22,2.05.5,2.83,1.08,1.1.83,2.24,1.49,3.52,1.96,1.15.43,2.38.72,3.25,1.8-.43-1.39.84-2.76-.45-4.26-.65-.76-1.25-1.4-2.09-1.91-1.04-.63-2.13-1.25-3-2.07-1.2-1.13-1.52-2.39-1.08-3.5.74-1.88,1.14-2.17,3.27-2.15,2.29.03,4.23,1.11,6.21,2.09.4.2.38.79.88.89,1.37.27,2.56,1.02,3.8,1.6,2.42,1.14,4.79,2.36,7.1,3.74,2.58,1.54,5.34,2.77,7.91,4.36,3.07,1.89,6.13,3.85,9.6,5,.32.11.64.35.84.62.7.9,1.45,1.78,2.01,2.77,1.62,2.86,3.11,5.79,2.75,9.25-.21,2-.82,3.91-1.45,5.8-.65,1.94-1.46,3.8-3.13,5.2-1.03.86-2,1.8-3.25,2.86Zm-79.9-62.24c-.6.5-1.17.9-.62,1.45.31.3,1.02.66,1.23.51.5-.33.27-.98.11-1.51-.18-.61-.55-1.02-1.03-1.49-1.3-1.27-3.02-2.12-3.91-3.78-.56-1.07-1.42-1.49-2.56-1.62-1.01-.11-2.03-.33-2.84-1.02-.38-.33-.8-.45-1.2-.26-.41.19-.72.09-1.12,0-1.96-.43-3.95-.63-5.94-.33-1.39.21-2.67.73-3.76,1.7.3.38,1.39.02.73.94-.36.5-1.35.88-1.13,1.39.31.73,1.3.18,1.98.36.05.01.09.08.31.28-.99.19-1.85.35-2.71.52-2.08.42-3.07,2.19-4.24,3.65-.14.17-.14,1.05-.51,1.4-1.33,1.27-2.42,2.76-3.24,4.35-1.51,2.9-2.96,5.85-3.88,9.01-.84,2.87-1.67,5.73-1.1,8.77.26,1.37.64,2.79,1.56,3.77.52.55,1.74.44,2.7.64-.13-.53-.53-.71-.75-1.03-.16-.23-.66-.4-.35-.75.32-.36.64-.06.89.22.82.91,1.56,1.93,2.49,2.72,1.45,1.22,2.95,2.35,4.13,3.87,1.31,1.7,3.46,2.1,5.18,3.17.52.32,1.22.11,1.82-.22,1.02-.56,1.53-1.55,2.11-2.46.6-.93,1.02-2,1.06-3.09.04-.91-1.02-1.25-1.51-1.9-.17-.22-.28-.47-.44-.7-.54-.74-1.15-1.04-2.15-.79-1.43.36-2.9.44-4.38-.07-4.44-1.52-7.94-4.37-11.09-7.73-.19-.2-.33-.47.06-.76.96.91,1.8,1.94,2.76,2.85,2.04,1.94,4.35,3.41,6.87,4.6,2.03.96,4.09,1.45,6.26.48.2-.09.68.04.39-.46-.55-.93-.23-1.94-.31-2.92-.14-1.82-.19-3.72.27-5.41.41-1.51-.18-1.3-1.13-1.46-.63-.11-1.41-.02-1.92-.63,1.12.16,2.2.32,3.33.18.85-.11.8.82.71,1.25-.13.63.08.77.57.91,1.82.52,3.65,1.02,5.29,2.01.49.3.69.21.92-.38.43-1.1.71-2.24.98-3.38.42-1.74,1.35-3.27,1.95-4.92.24-.65.57-.94,1.12-1.19.2.52-.19.8-.34,1.15-.69,1.55-1.6,3.03-2.07,4.63-.71,2.39-1.17,4.86-1.65,7.32-.17.88-.24,1.82-.24,2.69,0,.98.63,1.78,1.7,2.28,1.37.65,2.66,1.37,4.23,1.32.25,0,.73.05.56-.36-.52-1.24.56-2.24.38-3.48-.21-1.37-.07-2.77.45-4.14.78-2.07,1.56-4.07,3.14-5.71,1.42-1.48,2.8-3.03,4.01-4.69,1.23-1.69,2.83-2.81,4.68-3.62.73-.32,1.46-.68,2.37-.33.46.18.92-.15.69-.88-.42-1.33-1.53-2.27-2.88-2.36-1.3-.09-3.03-1.5-3.04-2.59,0-.41.33-.77-.27-1.06-.47-.22-.95-.32-1.38-.12-2.86,1.32-5.71,2.65-7.52,5.47-.59.92-1.09,2-2.31,2.76.72-1.51,1.48-2.74,2.4-3.83.63-.74.22-.96-.33-1.15-1.33-.47-2.71-.81-3.94-1.56-.4-.25-.81-.16-1.21.16-1.71,1.35-3.29,2.83-4.68,4.49-1.11,1.32-2.21,2.67-2.94,4.25-.6,1.29-.8,2.72-2.19,3.63-1.04.69-2.29,1.03-3.25.97-1.23-.08-2.4-1.1-3.66-1.74.56-.5.87-.04,1.17.1,1.26.59,2.52,1.15,3.96.93.2-.03.59.12.53-.24-.13-.74.22-.51.59-.36.2.08.4.14.29-.23-.14-.49.05-.59.47-.37.33.17.66-.04.67-.27.03-.63.53-1.06.64-1.61.4-1.9,1.71-3.26,2.78-4.74,1.38-1.91,3.13-3.48,4.95-4.97,1.65-1.35,3.39-2.38,5.62-2.34,1.14.02,2.28.09,3.67-.15Zm48.14-6.92c-.06.39.08.67.51.89,1.6.8,2.98,1.94,4.72,2.6,2.59.98,4.83,2.69,7.47,3.72,2.45.96,4.68,2.56,7.01,3.87,3.3,1.86,6.66,3.6,10.06,5.24,3.63,1.75,7.13,3.76,10.74,5.54.55.27,1.07.92,1.73.11.12-.15.43-.02.65.12,1.79,1.14,3.68,2.13,5.42,3.32,1.8,1.24,3.48,2.69,5.36,3.81,1.61.97,3.35,1.74,4.94,2.75,2.96,1.88,5.92,3.75,8.88,5.63.43.28.87.5,1.22-.04.49-.76,1.04-1.52,1.34-2.36.66-1.88,1.69-3.58,2.68-5.25,3-5.08,5.93-10.16,7.97-15.72.41-1.12.15-1.76-.88-2.28-2.39-1.19-4.94-2.06-7.17-3.57-.41-.28-.99-.28-1.31-.75-.31-.47-.66-.48-1.19-.22-1.41.7-3.03.81-4.49.64-1.38-.16-2.76-.91-3.99-1.65-2.88-1.73-5.98-3.03-8.87-4.78-2.74-1.66-5.75-2.84-8.57-4.36-3.54-1.9-7.02-3.93-10.57-5.8-3.47-1.83-6.72-3.98-10.03-6.03-3.51-2.17-6.83-4.65-10.27-6.93-1.58-1.05-3.19-2.04-4.63-3.27-.35-.3-.68-.63-.16-1.06.75-.63.54-1.08-.21-1.53-.33-.2-.57-.56-.86-.83-1.26-1.17-1.54-1.2-2.61.1-.51.62-1.06,1.17-1.6,1.75-.18.19-.48.47-.05.65,1.96.84,3.44,2.26,4.88,3.79.38.4.46.68.32,1.1-.51,1.43-.95,2.89-1.68,4.25-.43.8-.99,1.74-.08,2.65.48.48,1.15.47,1.73.68,2.5.91,4.67,2.48,7.1,3.53,3.34,1.45,6.55,3.18,9.71,4.96,1.37.77,2.78,1.48,4.11,2.34,1.13.74,1.94,2.02,3.44,2.22.37.05.76.05,1.13.3,3.36,2.22,6.9,4.13,10.38,6.13,4.67,2.69,9.37,5.31,14.16,7.8.41.21,1.13.53.89,1.26-.25.77-.63,1.49-.94,2.24-.25.59-.14.99.48,1.36,1.42.84,2.83,1.72,4.15,2.71,2.41,1.78,4.94,3.4,7.55,4.85,1.15.64.9,1.05.44,1.77-1.29,1.99-2.13,4.22-3.29,6.28-.31.56-.25.61-.79.4-2.32-.93-4.53-2.04-6.6-3.44-3.04-2.05-6.56-3.28-9.48-5.55-1.36-1.06-2.7-2.18-4.26-2.97-.32-.16-.61-.43-.69-.79-.32-1.45-1.43-2.02-2.65-2.54-1.09-.46-2.17-.98-3.18-1.6-5.67-3.49-11.79-6.11-17.59-9.34-2.24-1.25-4.48-2.5-6.76-3.67-4.43-2.26-8.82-4.62-13.25-6.88-1.35-.69-2.51.21-2.48,1.85Zm-18.41,36.41c.44.95.73,1.68,1.11,2.35.54.95,1.3,1.98,2.42,1.79,1.35-.22,2.74-.9,3.53-2.07.79-1.16.43-2.52-.23-3.71-1.84-3.35-3.7-6.69-5.57-10.03-.38-.68-.66-1.45-1.36-1.91-1.63-1.08-3.12-2.33-4.83-3.34-2.1-1.23-4.35-2.03-6.54-2.99-.65-.28-1.47-.17-2.22-.97,1.11.27,2.02.28,2.84.67,1.85.87,3.79,1.54,5.62,2.47,1.33.68,2.75.4,4.04-.55.53-.4.29-.67,0-.77-1.08-.37-2.01-1.06-3.18-1.23-1.23-.18-2.52-.32-3.65-.81-.75-.32-1.44-.71-2.23-.55-2.56.49-5.16.25-7.74.43-1.43.1-2.67.46-3.93.96-.57.23-1.13.61-1.54,1.07-1.59,1.8-3.19,3.6-4.66,5.5-1.32,1.72-3.12,3.15-3.38,5.55-.15,1.36-.6,2.67-.1,4.07.73,2.07,1.79,3.94,3.06,5.71.7.98,1.43,1.93,2.14,2.9-2.51-2.1-4.11-4.84-5.56-7.98-.33,1.32,0,2.38-.25,3.35-.21.82.07,1.27.49,1.87,1.11,1.6,3.02,2.2,4.32,3.55.41.42,1.11.53,1.51.86.62.51,1.42-.4,1.91.51,1.03,1.93,2.87,3.24,4.01,5.11.82,1.35,1.62,1.51,3.2,1.09,1.97-.52,3.79-1.38,5.72-2.09-1.69-1.38-2.91-3.12-4.9-4.12.99,3.08.79,4.52-.69,5.56-.16-.32.11-.58.23-.74.91-1.21.89-2.49.41-3.82-.41-1.12-1.03-2.12-1.89-2.96-.25-.25-.45-.59.03-.61,1.1-.04,2.21.09,3.32.14,0,.05,0,.11,0,.16-.68.03-1.37.06-2.18.1.73,1.07,1.78,1.45,2.58,2.15,1.29,1.12,2.76,2.07,4.27,2.91,1.46.81,3.78.27,4.63-1.15.61-1.01.4-2.05-.53-2.75-1.05-.79-2.05-1.64-2.92-2.63-.78-.89-1.77-1.51-2.66-2.28-.32.43.05.99-.49,1.44.03-1.44-.28-2.68-.5-4.06,1.77,1.19,3.7.62,5.5,1.05h-4.12c-.08.47.16.69.39.91,1.3,1.22,2.51,2.59,3.95,3.61,1.49,1.05,3.15,2.03,5.15,1.03.92-.46,1.84-2.27,1.23-2.78-1.12-.94-1.44-2.32-2.2-3.46-.71-1.05-1.39-2.18-2.35-2.94-.54-.43-1.11-.63-1.25-1.5,1.04.21,1.95.5,2.45,1.35.87,1.47,2.12,2.58,3.34,3.71,1.97,1.82,3.32,1.98,5.17.98.59-.32.76-.97,1.3-1.36-.15,2.36-3.25,3.05-6.24,1.23Zm-56.38-41.24c-1.58-.91-3.1-1.73-4.56-2.64-1.5-.94-1.66-1.86-.75-3.34.25-.4.43-.84.64-1.27.85-1.74,1.7-3.47,3.06-4.9.74-.78.75-1.89.11-2.29-3.25-2.01-6.49-4.03-9.78-5.97-2.14-1.26-4.45-2.25-6.54-3.6-3.74-2.42-7.59-4.66-11.51-6.78-3.3-1.78-6.69-3.39-10.15-4.86-.69-.29-1.08-.11-1.39.39-1.15,1.86-2.5,3.62-3.24,5.71-.81,2.29-1.86,4.54-1.51,7.09.05.39,0,.76.41,1.04,2.49,1.66,4.97,3.34,7.44,5.03.29.2.61.37.88.23,1.23-.62,2.38-.05,3.42.36,3.31,1.3,6.46,2.99,9.43,4.93,3.69,2.4,7.3,4.92,10.79,7.62,1.46,1.12,2.75,2.98,5.07,2.5,1.64-.34,2.78.68,3.98,1.48,1.83,1.22,2.03,1.23,3.68-.23.15-.13.29-.27.52-.49Zm36.36-181.04c.34.24.62.43,1,.49,2.49.41,5,.34,7.5.29,3.33-.07,6.58-.82,9.73-1.69,4.77-1.31,9.61-2.1,14.5-2.39,5-.3,10.07-.4,15,.59,3.52.71,6.94,1.94,10.51,2.5,1.9.29,3.73.91,5.68,1.03,1.27.08,2.54.43,3.79.75,1.72.43,3.45.73,5.22.57.29-.03.71.15.84-.23.13-.37-.28-.53-.48-.75-2.1-2.31-3.97-4.78-5.78-7.33-1.01-1.43-1.98-2.97-3.41-4.03-1.23-.91-2.81-.97-4.21-1.42-2.78-.89-5.6-1.38-8.44-1.3-1.69.05-3.35-.28-5.03-.09-.31.04-.62,0-.93-.15-.99-.47-2.1-.56-3.1-.32-1.6.37-3.23.27-4.84.41-2.95.26-5.92.05-8.88.61-3.12.59-6.28,1.01-9.42,1.46-3.02.43-5.95,1.37-8.97,1.89-1.38.24-2.74.57-3.52,2.04-.43.8-1.28,1.37-1.88,2.09-1.51,1.78-3.24,3.34-4.89,5Zm-31.08,185.58c-1.31-.52-2.42-1.03-3.67-1.13-.5-.04-1.06-.12-1.31.54-.11.29-.44.36-.49.05-.2-1.25-1.1-.78-1.81-.83-.7-.05-1.77.24-2.02-.35-.59-1.36-2.12-1.49-2.85-2.58-.16-.24-.56-.2-.79-.1-.65.31-1.34.12-1.99.25-2.22.44-4.55,1.03-6.1,2.61-2.17,2.2-4.48,4.29-6.38,6.75-1.68,2.18-2.75,4.6-3.46,7.27-.42,1.59.09,3.06.05,4.58-.03,1,.21,1.95.61,2.86.3.68.73,1.33,1,1.97.22.53.02,1.44.57,1.78,1.76,1.06,2.41,2.97,3.62,4.44,1,1.22,1.88,2.58,3.57,2.93,1.88.39,3.8.27,5.7.27.29,0,.66.16.86-.33-.5-.28-.59-.61-.37-1.23.23-.64.28-1.38.36-2.07.27-2.45.99-4.79,1.58-7.17.61-2.46,1.99-4.57,2.99-6.86,1.29-2.98,3.02-5.59,5.38-7.8.7-.66,1.24-1.51,1.3-2.44.07-1.15.41-2.11,1.25-2.92-.44-.13-.68-.34-.8-.83,1.05.09,1.94.88,3.2.35Zm61.06-169.83c-1.31.74-2.82.83-4.27.89-5.79.26-11.54-.14-17.21-1.46-.54-.13-.77.02-.85.49-.27,1.71-.49,3.42-.56,5.16-.03.88.46.89,1.05.8,3.6-.54,7.24-.46,10.79.12,2.68.44,5.4,1.1,7.8,2.57.57.35.82.24,1.04-.5,1.14-3.86,2.83-7.53,3.81-11.44.55-2.2,1.04-4.41,1.42-6.65.42-2.52.51-5.04.5-7.57,0-.56-.12-.76-.76-.66-.98.15-1.99.27-2.97.18-1.88-.18-3.61.54-5.44.7-2.4.21-4.68,1.25-7.1,1.6-.52.08-1.3-.01-1.65.74-.74,1.62-1.98,2.92-2.88,4.45-1.69,2.87-3.48,5.68-4.59,8.85-.17.49-.22.6.35.78,1.15.35,2.36.38,3.51.45,2.41.15,4.8.47,7.2.59,3.57.18,7.17.15,10.8-.08Zm69.35,149.14c-.05.1-.06.16-.09.17-.74.27-1.48.53-2.21.81q-1.49.58-.5,1.82s-.05.12-.11.25c-.3-.18-.63-.32-.89-.53-2.66-2.17-5.66-3.88-8.2-6.21-1.27-1.16-2.93-1.06-4.31-.48-.88.37-1.67.66-2.58.58-1.09-.09-1.2.44-.98,1.3.22.87.58,1.73.49,2.64-.1.99.42,1.5,1.22,1.79,1.11.4,2.15.98,3.18,1.51,1.33.68,2.63,1.47,4,2.06,1.2.52,2.06,1.78,3.74,1.45.72-.14,1.68.71,2.47,1.27,2.16,1.54,4.45,2.88,7.09,4.06-1.15-3.29-2.57-6.17-4.67-8.95.75.21,1.03.65,1.32,1.04,1.7,2.35,2.83,4.98,3.83,7.68.22.6.53.91,1.07,1.26.87.56,1.71,1.34,1.75,2.5.07,2.06-.01,4.09-.93,6.02-.4.85-.65,1.83-.36,2.81.68.05.98-.59,1.57-.85,0,.97-.79,1.14-1.25,1.52-.81.67-.37,1.49-.32,2.19.04.62.79.34,1.2.32.58-.02,1.14-.22,1.8-.36-.47-1-.53-2.06-.69-3.1-.22-1.52-.51-3.14-.09-4.53.78-2.54.08-4.88-.49-7.23-.32-1.31-.58-2.59-.69-3.93-.14-1.6.12-3.19.34-4.74.22-1.54.3-3.12.7-4.64.07-.25.19-.64.08-.77-.22-.25-.56-.04-.87.02-1.84.38-3.69.69-5.69,1.06.35-.49.66-.57,1.02-.64,1.73-.35,3.46-.7,5.17-1.14,1.19-.3,2.09-1.09,2.21-2.35.29-3.15-.26-6.06-2.92-8.19-.26-.2-.54-.54-.76-.09-.74,1.54-2.2,1.72-3.59,2.3-3.41,1.42-7.02,1.29-10.55,1.79-2.65.38-5.31.19-7.97.27-.31,0-.7-.17-1.03.3,1.75.76,3.52,1.34,5.04,2.39,1.06.73,2.37.9,3.41,1.57,1.82,1.17,3.21,2.85,4.66,4.42.82.88,1.49.88,2.44.39.9-.46,1.85-.86,2.95-.88Zm-47.54,69.42c-2.72-.88-5.98,1.27-6.2,4.08,0,.11.02.23.05.35.5,2.07.16,4.18.24,6.26.06,1.65.59,2.97,1.89,3.82.73.48,1.74,1.08,2.65.64,1-.49,2-1.17,2.1-2.6.34.31.58.58.87.78.86.57,2.01,1.59,2.68,1.26,1.11-.55,2.69-.7,3.22-2.2.12-.35.35-.93.81-.52.91.81,2.14.8,3.11,1.38,2.54,1.52,4.72.27,5.76-2.38.47-1.21.75-1.33,1.9-.69.35.19.72.25,1.03.13.66-.27,1.33-.28,2-.23,1.07.09,1.87-.61,2.79-.92.54-.19.07-1.01.31-1.52.15-.31.17-.68.24-1.03.33-1.6.11-3.1-1.23-4.15-1.83-1.43-3.13-3.33-4.61-5.04-.91-1.05-1.76-1.43-3.02-1.4-.5,0-.9.25-1.38.29-1.93.16-2.49.98-2,2.9,2.47-2.13,4.48-2.7,5.73-1.48-1.43-.55-2.72-.22-3.96.49-1.41.81-1.82,1.62-1.21,3.06.81,1.91,1.13,3.97,1.94,5.87.1.25.2.59-.22.66-.42.07-.58-.07-.41-.55.07-.19-.17-.49-.25-.75-.44-1.54-1.31-2.93-1.77-4.45-.66-2.18-1.67-2.96-3.92-2.7-1.96.22-2.68,1.07-2.73,3.02-.04,1.25.52,2.36.71,3.56.2,1.31.83,2.56.66,3.93-.3.04-.43-.09-.46-.24-.3-1.49-.59-2.99-.89-4.48-.2-.99-.16-2.2-.72-2.92-.8-1.03-2.12-1.48-3.53-1.14-1.84.44-2.97,1.71-2.62,3.11.55,2.19.32,4.47.83,6.66.07.29-.03.55-.36.74-.43-.34-.49-.81-.5-1.35-.02-1.14-.09-2.29-.19-3.43-.11-1.22-1.02-2.36-.37-3.67.22-.44-.34-.55-.64-.7-.83-.42-1.77-.36-2.67-.54.84-.07,1.69-.28,2.48.03.8.31,1.18.03,1.39-.72.12-.41.3-.81.46-1.21Zm-22.33-68.35c-1.66-.8-3.23-1.6-4.83-2.32-2.53-1.14-4.77-2.81-7.3-3.92-4.59-2.02-9.08-4.25-13.57-6.47-3.84-1.9-7.75-3.73-11.37-6.12-2.32-1.54-4.94-2.62-7.41-3.96-.37-.2-.53-.12-.63.16-.63,1.71-1.16,3.45-.87,5.29.1.63.2,1.58.81,1.75,1.32.38,2.32,1.27,3.49,1.86,2.91,1.47,5.61,3.31,8.43,4.94.95.55,1.89,1.14,2.87,1.64,1.5.77,3.04,1.53,4.32,2.6.86.71,1.8,1.1,2.77,1.52,1,.43,2.22.4,3.04,1.22,1.96,1.96,4.42,3.15,6.78,4.5,1.99,1.14,4.17,1.89,6.21,2.91,1,.5,1.17.3,1.45-.61.27-.89.45-1.91,1.24-2.5.63-.47,1.08-1.04,1.36-1.72.37-.91.9-1.16,1.72-.59.48.33.91.42,1.48-.18Zm14.61,10.26c.45.3.81.61.39,1.15-.97,1.26-1.49,2.78-2.41,4.06-.41.58-.32.78.22,1.07,1.98,1.07,3.92,2.22,5.94,3.21,1.91.93,3.85,1.8,5.72,2.79,2.99,1.59,5.89,3.36,8.84,5.01,4.93,2.75,10.01,5.23,15,7.86,3.44,1.81,6.84,3.71,10.28,5.53.58.31,1.18.82,1.11,1.28-.16,1.11.78,1.09,1.25,1.53.19.18.4.3.54-.19.65-2.3,2.2-4.12,3.38-6.14.15-.26.59-.61.16-.91-.3-.21-.66-.72-1.12-.25-.43.44-.7.21-1.11-.07-.58-.39-1.25-.68-1.91-.94-2.04-.82-4.05-1.72-5.99-2.77-1.67-.9-3.31-1.88-5.05-2.61-1.47-.62-2.88-1.32-4.21-2.16-5.91-3.74-12.13-6.93-18.23-10.31-2.62-1.45-5.23-2.94-7.86-4.37-1.65-.9-3.13-2.09-4.94-2.77Zm27.6-31.11c-.11-1.12.19-2.59-.24-4.05-.78-2.58-1.46-5.19-2.18-7.79-.06-.22,0-.55-.36-.47-.21.05-.25.34-.17.51.51,1.09.37,2.2.27,3.35-.25,2.82.19,5.64.28,8.46.08,2.58-.38,5.14-.09,7.75.24,2.17-.46,2.66-2.67,2.67-.36,0-.76-.1-1.07.03-2.63,1.11-5.46.77-8.19,1.03-2.81.26-5.66.29-8.5.07-1.15-.09-2.26-.86-2.31-1.69-.23-3.84-.27-7.68-.56-11.51-.18-2.43,0-4.88-.04-7.32-.03-1.79-.03-3.56.27-5.35.2-1.23.07-2.51.09-3.77-1.15-.03-2.3-.06-3.45-.08-.16,0-.34-.03-.47.03-.17.08-.44.3-.42.36.62,1.52-.35,2.93-.26,4.49.23,3.82.53,7.66.41,11.5-.12,3.8.06,7.59.3,11.38.02.29-.05,1.02.41.68.59-.43.82-.03,1.2.13,1.16.49,1.99,1.44,2.87,2.26.63.58,2.06,1.02,1.16,2.45-.06.09.17.45.34.59,1.57,1.24,3.09,2.56,5.01,3.26.21.08.38.19.66.08,1.49-.6,3.05-1.05,4.48-1.75,1.91-.93,3.78-1.95,5.56-3.14.34-.23.76-.67,1.26-.15.71.74,1.75.86,2.6,1.35.61.35,1.05.25,1.31-.59.36-1.2.37-2.47.78-3.66,1.21-3.49,1.85-7.08,1.72-11.12Zm-42.18,43.29c1.57-.95,3.25-1.82,3.89-3.74.16-.5.52-.89.7-1.33.28-.68,1.26-.88,1.13-1.78-.1-.66.02-.79.67-.4,1.15.7,1.84.41,2.38-.79.98-2.18,1.47-4.6,3.11-6.45.69-.78.34-1.36-.34-1.89-2.7-2.1-5.37-4.25-8.12-6.28-.58-.43-1.83-.96-2.17-.26-.43.88-1.12,1.49-1.62,2.26-1.45,2.24-2.75,4.56-4.07,6.88-1.68,2.94-3.22,5.93-4.04,9.27-.27,1.08.27,1.34.85,1.56,1.72.65,3.19,1.68,4.72,2.65,1.17.74,2.42,1.34,3.63,2,.27.15.56.22.73-.08.2-.37-.03-.55-.37-.71-.41-.19-.88-.36-1.08-.89Zm-37.32-150.71c-.63-.14-.76-.65-.96-1.06-1.38-2.74-2.31-5.65-3.04-8.62-.25-1.03-1.13-1.44-1.85-1.57-.75-.13-.09,1.03-.6,1.4-.04.03.04.29.1.42.11.21.12.41-.13.46-.27.06-.25-.2-.34-.38-.24-.52-.19-1.08-.26-1.62-.15-1.26-.97-1.85-1.85-1.39-.26.14-.37.51-.65.53.07-3.78.85-7.43,2.21-10.97-.69.64-1.03,1.43-1.35,2.23-.81,2.01-.78,4.16-1.12,6.24-.42,2.58-.49,5.18-.75,7.76-.29,2.85.86,5.57,1.22,8.37.48,3.74,1.59,7.41,2.89,10.98.51,1.41.93,2.88,1.8,4.14-.31-1.46-.77-2.86-1.06-4.31-.14-.71-.87-1.44.32-1.92.06-.03.05-.3.04-.46-.19-2.47.36-4.91.29-7.38-.03-.94.03-1.94.34-2.8.23-.62-.19-1.5.79-1.94-.11,1.6-.01,3.12.24,4.64.31,1.89.47,3.83.97,5.67.92,3.42,2.89,6.39,4.47,9.53,2.41,4.82,5.53,9.1,9.43,12.82-.69-1.27-1.76-2.26-2.62-3.41-2.62-3.5-5.32-6.96-7.15-10.97-1.27-2.79-3.2-5.26-3.83-8.37-.14-.69-.06-1.02.39-1.41,1.26-1.08,2.53-2.13,4.18-2.6,1.37-.39,2.63-1.03,3.85-1.79.69-.43.89-.95.71-1.57-.58-1.94-.04-3.94-.45-5.9-.2-.94-.58-1.2-1.36-1.47-1.59-.54-3.29-.33-4.86-.85-.77-.26-1-.19-1.02.7-.05,2.34.25,4.62,1.06,6.86Zm63.51,126.71c.8.09,1.54.02,2.2.57,1.54,1.29,3.07,2.59,4.66,3.82,1.93,1.49,3.78,3.17,5.9,4.31,4.27,2.3,8.67,4.38,12.88,6.81.89.51,1.22.14,1.31-.61.26-2.29,1.49-4.12,2.76-5.91.55-.78.25-.96-.36-1.31-1-.58-2.15-.76-3.16-1.3-1.39-.74-2.73-1.57-4.13-2.31-3.93-2.08-7.96-4-11.79-6.25-1.8-1.06-3.22-1.7-4.81.08-.11.12-.38.07-.55.14-1.64.65-3.27,1.31-4.9,1.96Zm-20.67,21.71c1.04.85.23,1.37-.06,1.97-.12.25-.25.5-.37.74-.51.98-.21,1.63.8,2.03,1.13.45,2.27.91,3.37,1.43,6.7,3.12,12.93,7.11,19.47,10.54,6.22,3.26,12.36,6.67,18.39,10.28.41.24.66.35.85-.26.34-1.07,1.08-1.92,1.76-2.78.49-.63.47-.85-.22-1.22-2.13-1.12-4.21-2.33-6.34-3.46-3.83-2.04-7.79-3.83-11.61-5.9-3.81-2.07-7.68-4.04-11.58-5.95-3.43-1.68-6.81-3.46-10.14-5.33-1.32-.74-2.58-1.61-4.32-2.08Zm-3.27-27.75c.22-.35.43-.72.66-1.06,2.14-3.16,4.26-6.35,5.46-10.01,1.9-5.79,2.19-11.82,2.52-17.84.07-1.22-.37-1.55-1.48-1.4-.86.12-1.73.1-2.6.25-1.3.21-2.58-.24-3.86-.46-.65-.11-1.45-.46-1.44.83.02,5.6.13,11.21-.3,16.8-.08,1.05.46,2.01.32,3.05-.44,3.29.81,6.48.72,9.84Zm51.35-131.1c-1.23,1.6-2.93,2.22-4.73,2.55-1.12.2-2.24.36-3.35.64-.91.22-1.33.69-1.15,1.66.26,1.39-.06,2.79,0,4.19.05,1.39.06,2.8-.06,4.19-.05.56.17.57.53.68,1.54.45,3.09.88,4.62,1.39,1.65.56,3.13,1.4,4.2,2.93.96-2.13,1.17-4.4,1.88-6.54-.04,4.92-.13,9.82-.86,14.68,1.5-3.54,1.94-7.3,2.69-11.01.31-1.55-.33-3.51,1.51-4.59.07-.04.08-.22.08-.34,0-2.22,0-4.45,0-6.67-.09,0-.18,0-.27,0v3.78c-.73-.37-.52-.91-.51-1.35.06-2.66-.22-5.27-.89-7.84-.09-.33-.09-.9-.61-.83-.33.04-.7.23-.74.78-.17,2.27-.55,4.51-1.11,6.71-.27,1.05-.52,2.14-1.26,3.02.4-2.65.06-5.29.04-8Zm-26.8,116.91c0-2.33,0-4.09,0-5.85,0-.36.18-.87-.46-.9-1.07-.04-2.16-.25-3.18-.22-1.77.05-3.53-.18-5.29-.14-.65.01-.67.17-.67.66.01,2.84,0,5.68,0,8.52,0,.24.05.47.08.71.26,2.14.25,4.29.2,6.45-.01.53-.27,1.31.74,1.22,2.56-.23,5.12-.52,7.68-.73.89-.07,1.21-.42,1.2-1.34-.04-2.98-.54-5.95-.28-8.36Zm-14.83,85.75c.17-.97-.46-2.07-.51-3.24-.05-.96-.57-1.37-1.34-1.51-1.38-.25-2.77-.45-4.04-1.13-.51-.27-.76-.13-.72.52.05.78.03,1.55-.27,2.33-1.11,2.89-1.84,5.89-2.45,8.92-.2,1.01-.19,2.09.9,2.74.75.44,1.44,1.06,2.24,1.31,3.08.98,6.02,2.31,8.85,3.83,1.06.57.88.06.91-.6.05-1.3-.05-2.59.22-3.9.32-1.61-.04-2-1.47-2.77-.92-.49-1.64-1.15-2.11-2.22-.62-1.39-.18-2.7-.21-4.28Zm12.96-101.83c-1.75,0-3.51.01-5.26,0-.79,0-1.23.3-1.44,1.1-.51,1.93-.21,3.84.08,5.75.06.4.44.54.83.53,1.76-.07,3.46.35,5.28.1,3.02-.42,6.12-.29,9.19-.37,1.17-.03,2.35-.01,3.52,0,.55,0,.8-.19.99-.77.52-1.56-.05-3.04-.24-4.53-.18-1.35-1.56-2.14-2.55-2.06-1.26.1-2.51-.29-3.73-.02-2.22.48-4.44.1-6.66.28Zm-30.01,21.18c0,.32.05.65,0,.96-.18.9.28,1.25,1.07,1.44,1.19.27,2.41.48,3.53.92,1.19.46,1.16-.09,1.19-.99.11-3.69-.2-7.37-.05-11.07.15-3.47.03-6.95.04-10.42,0-.39-.03-.82.11-1.18.36-.94-.1-1.15-.89-1.15-1.11,0-2.19,0-3.18-.7-.4-.29-1.12-.3-1.58.09-.43.36-.18.84-.06,1.32.14.53.19,1.14.07,1.66-.56,2.37-.01,4.77-.22,7.15-.34,3.99.78,7.99-.02,11.98Zm-.53-10.36c0-1.26-.02-2.14,0-3.02.02-.67.02-.96-.89-.76-1.91.42-3.8.83-5.84.42-1.98-.4-2.18-.12-2.07,1.87.2,3.52.54,7.04.51,10.57,0,.48.05.97-.01,1.44-.09.65.24.95.79,1.12,1.61.51,3.19,1.1,4.86,1.43,2.46.49,2.6.36,2.66-2.17.06-2.15-.31-4.29-.25-6.42.05-1.62.28-3.23.23-4.48Zm-14.59-1.45c0-.32-.04-.65,0-.96.17-1.04-.2-1.4-1.28-1.34-1.55.09-3.13.14-4.67-.03-2.3-.25-2.37-.33-2.27,2.02.1,2.28-.12,4.54-.23,6.8-.11,2.4.26,4.68.69,6.99.14.76.7.81,1.38.65,1.6-.38,3.21-.75,4.84-1.01,1.61-.26,1.7-.3,1.54-1.91-.03-.28-.01-.56,0-.84.04-1.47.04-2.94.21-4.42.23-1.99-.1-3.98-.21-5.97Zm1.43-10.51c-2.23,0-4.07-.01-5.9,0-.7,0-1.4.13-1.53.99-.22,1.44-.65,2.83-1.12,4.2-.47,1.38-.44,1.41,1.07,1.39,2.21-.03,4.46-.28,6.63-.16,4.04.23,8.07.49,12.13.47.79,0,1.02-.36,1.05-1.1.04-1.24-.25-2.43-.41-3.64-.23-1.65-.7-1.97-2.92-2.15-.88-.07-1.7.45-2.58.25-2.25-.51-4.53-.13-6.39-.26Zm-3.32,27.29c.88.86,2,.73,2.88,1.28,1.12.7,2.43,1.1,3.62,1.69,2.54,1.25,5.13,2.43,7.57,3.86,1.63.96,3.38,1.63,5.04,2.51.47.25.77-.09,1.01-.5.38-.66.52-1.39.77-2.09.76-2.06,1.12-4.22,1.58-6.36.11-.53.35-1.32-.61-1.55-1.19-.28-2.41-.48-3.53-.92-.91-.36-1.17.02-1.3.72-.12.66-.47,1.1-1.1,1.23-.84.17-1.67.41-2.56.36-1.52-.07-3.08-.13-4.55.06-2.94.38-5.8.11-8.82-.31Zm45.42,93.42c-.4.6-.72,1.2-1.3,1.58-1.14.75-1.15.79.06,1.43,3.05,1.63,6.21,2.41,9.61,1.17.24-.09.47.11.67.11.82,0,1.39.65,2.22.7,1.76.1,3.5-.16,5.21-.37,1.5-.18,3.1-.51,4.3-1.7,1.77-1.76,1.86-4.21,2.98-6.44-2.78.97-4.67,1.23-5.96.61-.99-.48-1.18.09-1.36.76-.48,1.84-1.86,2.91-3.72,3.04-1.86.13-3.35-.72-4.85-1.58-.43-.24-.87-.44-1.18.14-.76,1.4-2.18,1.72-3.51,2.19-1.25.44-2.09-.17-2.76-1.16-.11-.16-.25-.29-.41-.48Zm9.23-94.19c1.08-.14,2.08-.37,3.08-.35.9.01,1.46-.39,1.85-1.05.65-1.09,1.06-2.33,1.09-3.58.08-3.71.02-7.43.03-11.15,0-.8-.3-.97-1.1-.81-1.34.27-2.72.47-4.08.57-1.05.08-1.56.47-1.38,1.55.45,2.71.14,5.45.46,8.17.25,2.18.05,4.42.05,6.66Zm38.19,27.67c-.06-.33-.31-.44-.55-.59-1.28-.76-2.54-1.55-3.81-2.31-2.4-1.44-4.83-2.81-7.19-4.31-1.07-.68-1.52-.21-1.92.68-.67,1.51-1.29,3.03-1.99,4.52-.94,2.01-.76,2.43,1.41,3.03.67.19,1.26-.12,1.85-.3.35-.11.67-.25,1.03-.16,3.16.81,6.38,1.46,8.87,3.81.48.45.59.19.72-.34.29-1.14.65-2.26,1.23-3.3.13-.24.23-.5.35-.73Zm-17.76-27.14c-1.58.38-3.16.64-4.77.75-.36.03-.96-.28-1.04.43-.08.68.32.91.94.93.3,0,.58.09.91.06,2.47-.25,4.96-.43,7.44-.64,1.26-.11,2.54.24,3.74.15,3.67-.28,7.32-.73,10.88-1.8,2.55-.77,3.06-1.31,2.72-3.66-.23-1.59-.83-1.88-2.23-1.24-1.89.86-3.83,1.62-5.73,2.46-2.36,1.04-4.86,1.54-7.39,1.9-1.58.22-3.16.57-5.07.52,1.66-.7,3.25-.37,4.89-1.19-1.5-.08-2.69-.02-3.83-.22-2.04-.36-4.09-.76-6.05-1.47-.56-.2-.96.03-.97.66,0,.64-.1,1.24-.24,1.87-.13.58-.12.99.86.81,1.61-.3,3.26-.59,4.93-.3Zm-34.72-155.83c.18,1.09.27,1.86.45,2.61.97,4.06.76,8.12.12,12.19-.09.54-.34,1.05-.25,1.62.06.38.37.55.54.23.54-1,1.09-.28,1.62-.07,1.02.41,2.12.61,2.51-.9.13-.5.42-.96.64-1.43.15,1.1-.41,2.22.35,3.32.13-.49.54-.49.92-.43,1.43.27,1.96-.51,2.23-1.76.14-.64.36-1.28.56-1.91.53-1.64.34-3.36.74-5.01.19-.78.07-1.51-1.02-1.62-2.41-.23-4.82-.55-7,.9-.55.37-.7.35-.79-.35-.22-1.83-.46-3.66-.82-5.47-.11-.55-.02-1.26-.82-1.94Zm-6.83,136.71c-.07,0-.14,0-.21,0-.1.21-.29.41-.29.62.02,2.38-.53,4.69-.87,7.02-.45,3.07-1.43,5.98-2.84,8.7-1.28,2.47-2.8,4.84-4.42,7.11-.72,1.01-.45,1.81-.3,2.79.13.83.49.61.9.35.26-.17.45-.46.7-.65,1.56-1.17,2.87-2.72,4.92-3.15.6-.13,1.17-.48,1.7-.81.82-.52,1.36-1.13,1.27-2.29-.29-3.73-.54-7.46-.56-11.2-.01-2.83,0-5.66,0-8.48Zm21.63-29.05c-3.29,1.59-6.47,3.12-9.83,4.31-3.36,1.2-6.59,2.75-10.14,3.34-.97.16-.49.83-.58,1.29-.1.54.26.66.73.66.92-.01,1.97-.28,2.73.06,1.95.89,3.63.03,5.33-.53,3.01-.98,5.82-2.44,8.64-3.87,1.23-.62,2.55-.94,4.07-.81-.31-1.46-.63-2.93-.96-4.46Zm-47.76,38.16c.13-2.84-.44-5.2-.25-7.59.06-.71-.38-.88-.98-.89-.96,0-1.92.03-2.87-.08-.58-.06-.59.2-.58.59.02,1.44.15,2.88.04,4.3-.08,1.07.51,2.07.22,3.12-.61,2.25-.13,4.47.04,6.71.04.55.47.45.81.46,1,.01,2-.03,3,.01.68.03.84-.23.88-.9.12-2.08-.51-4.11-.31-5.74Zm15.33-29.87c.22-.73-.13-.88-.62-.99-2.1-.48-3.99-1.58-6.14-2.01-2.55-.51-4.75-2.03-7.14-3.01-2.27-.93-4.34-2.26-6.39-3.61-.3-.2-.5-.4-.73.02-.52.97-.99,1.97-1.17,3.06-.03.17-.1.64.17.52.82-.38,1.39.24,2.01.45,3.71,1.25,7.24,2.89,10.65,4.84,1.29.74,2.48,1.73,4.18,1.84,1.31.08,2.58-.05,3.85,0,1.2.05,1.57-.1,1.34-1.12Zm26.99,33.72c.22,1.96-.35,3.97.3,5.91.07.21-.16.57.39.51.99-.1,1.98-.14,2.97-.12.67.01.74-.29.79-.86.06-.74-.32-1.39-.29-2.1.14-3.6-.3-7.18-.3-10.78,0-3.35-.01-3.33-3.41-3.02-.58.05-.72.27-.74.81-.04,1.2.01,2.44.12,3.58.2,2.03.01,4.04.17,6.06Zm33.67,67.39c-.57,1.15-.27,2.45-1.17,3.44-.68.75-.43,1.33.63,1.88,3.72,1.93,7.62,3.47,11.24,5.58,1.89,1.1,1.94,1.03,2.94-1.01.09-.18.2-.34.25-.53.12-.45.17-.78-.4-1.11-1.76-1.03-3.48-2.15-5.17-3.28-2.68-1.8-5.53-3.31-8.32-4.96Zm-68.21-100.15c-.68-.67-1.36-.8-1.93-1.14-3.66-2.22-7.57-3.86-11.59-5.29-.69-.24-.81.02-.95.57-.44,1.7-.91,3.39-1.42,5.07-.12.39-.04.51.31.56.66.09,1.28.33,1.97.32,2.51-.04,5.04-.16,7.53.07,1.98.18,3.9.3,6.07-.14Zm11.83-114.42c-.86,7.97-2.62,15.7-5.85,23.06,1.95-3.78,3.48-7.7,4.58-11.86.54.25,1.13.56,1.74.81.44.18.79.3,1.17-.3.98-1.54,1.7-3.17,2.14-4.94.09-.37.04-1.18.63-1.04.41.1.16.83.15,1.28,0,.07-.09.14-.1.21-.34,1.67-.67,3.34-1.01,5.02,1.67-1.9,2.84-4.04,3.73-6.36.18-.48-.04-.72-.3-.9-.45-.3-.85-.67-1.42-.82-1.57-.41-3.14-.3-4.71-.09-.53.07-.91.36-.68-.6.27-1.11.19-2.31-.06-3.48Zm-33.58,18.98c.4-.47.28-.84.25-1.17-.09-1.26-.42-2.5-.3-3.78.06-.63.26-1.21.47-1.79.74.32,1.56-.26,2.28.2,1.01.64,2.61.1,3.02-1.03.64-1.8.99-3.7,1.85-5.43.24-.48.01-.9-.38-1.26-1.22-1.13-2.7-1.56-4.29-1.7-.13-.73.56-1.27.36-2-2.51,5.67-4.51,11.44-3.26,17.97Zm59.06,93.28c-3.75.06-6.71,3.02-6.53,6.54.21,4.24,1.88,6.98,6.51,6.96,3.93-.01,6.89-2.6,6.9-6.06.01-4.53-2.68-7.44-6.88-7.44Zm28.8,102.31c0-.59-.25-1.22-.65-1.58-1.25-1.13-2.61-2.15-3.93-3.2-.28-.23-.66-.32-.82.05-.84,1.95-2.08,3.68-3.05,5.55-.13.25-.24.42.16.63,1.78.92,3.44,2.08,5.37,2.68.21.06.43.36.64.13,1.09-1.23,2.25-2.44,2.27-4.26Zm-20.78-199.79c.66-2.25.88-4.53.8-6.86-.02-.59-.37-.82-.76-.9-.73-.15-1.43-.4-2.21-.38-1.06.02-2.12.16-3.19-.2-.8-.27-.87.43-.72.92.71,2.43.97,4.92,1.13,7.43.03.49.18,1.03.93.96,2.14-.21,2.14-.19,2.78-2.27.06-.19.02-.42.11-.58.5-.89.06-1.97.51-3.12.74,1.79.5,3.41.62,5Zm-22.87,149.97c0-.54-.36-.72-.59-.98-1.04-1.14-2.35-2.13-3.05-3.45-.66-1.22-.98-.48-1.31-.05-1.03,1.37-2.2,2.58-3.57,3.61-.26.2-.95.69-.22,1.19,1.91,1.31,3.83,2.61,5.45,4.27.51.52.77.35,1.01-.22.46-1.09,1.05-2.11,1.68-3.11.27-.43.44-.92.6-1.28Zm24.59,92.6c-.29-.42-.35-.57-.46-.66-1.22-1.09-1.23-1.16.01-2.32.43-.4.96-.68,1.43-1.04.31-.24.61-.51.88-.79.09-.1.17-.31.12-.41-.04-.09-.32-.19-.39-.14-1.12.84-2.48.31-3.69.66-2.43.72-4.88.62-7.32.02-.77-.19-1.57-.29-2.36-.43,1.22.83,2.48,1.58,3.5,2.55,1.58,1.5,3.32,2.28,5.5,2.14.82-.05,1.67-.17,2.78.43ZM2.38,242.01c-.02-1.75,0-3.1.45-4.46,1.09-3.27,2.68-6.26,4.6-9.09.32-.48.46-.73-.18-.93-.87-.27-.72-.71-.22-1.22.17-.17.46-.33.47-.52.03-.32.66-.59.16-.9-.34-.21-.69.01-.9.37-.5.85-.94,1.73-1.5,2.53-2.12,3.01-3.74,6.25-4.48,9.86-.21,1.03-.15,2.16.01,3.21.09.61,1.03.41,1.58,1.14Zm108.52-87.84c1.8-2.19,3.57-4.3,5.28-6.46.62-.78,1.93-1.31,1.11-2.77-.19-.34-.18-.92-.59-1.06-.49-.17-.88.23-1.19.59-1.49,1.76-2.97,3.53-4.45,5.29-.53.63-1.3,1.18-1.55,1.91-.31.89.82,1.34,1.16,2.08.04.1.1.19.23.41Zm6.49,92.97c-.29,1.01.06.99.81.53.22-.13.59-.38.94.05.65.8,1.27.5,1.89-.14,2.43-2.46,4.9-4.89,7.31-7.37.18-.19,1.05-.15.5-.76-.31-.34-.76-.51-1.26-.08-2.95,2.53-6.34,4.38-9.63,6.41-.49.3-.95.66-.56,1.37Zm-47.05-60.57c-.35,2.81.17,5.37.26,7.94.03.92.06,1.89.24,2.82.42,2.17.72,4.34.86,6.55.07,1.2-.09,2.51.63,3.55.72,1.06,1.65,1.97,2.43,2.87-1.51-7.78-3.2-15.59-4.41-23.74Zm102.53,68.66c-.14-.24-.16-.34-.22-.36-3.93-1.61-7.25-4.35-11.27-5.87-3.7-1.4-7.14-3.46-10.54-5.5-.77-.46-1.14-.31-1.64.31.49.19,1,.31,1.42.58,3.51,2.26,7.3,4.02,10.95,6.02,2.21,1.21,4.56,2.14,6.78,3.34,1.33.72,2.7,1.64,4.51,1.49Zm-16.73-159.48c-.23,3.22-1.43,5.8-2.97,8.24-.67,1.07-.52,1.36.8,1.47.94.08,1.89.17,2.74.62.76.41,1.03.2.98-.61-.1-1.61.03-3.28-.36-4.81-.39-1.54-.62-3.12-1.18-4.91Zm-10.76,4.76c-1.3-.4-2.13.29-2.59,1.73-.27.83-.81,1.53-1.47,2.13-.19.17-.51.39-.29.69.18.24.53.16.78.09,1.58-.47,3.2-.2,4.8-.24.85-.02,1.18-.25,1.15-1.06-.02-.4,0-.8,0-1.2q0-2.15-2.37-2.15Zm-77.85,137.1c-.5.86.2,1.3.83,1.61,1.21.6,2.27,1.44,3.36,2.18,1.93,1.3,2.18.65,3.18-.72.38-.52.29-.7-.18-1-2-1.26-4.08-2.36-6.15-3.5-.69-.38-.91-.05-1.03.51-.06.27-.01.56-.01.91Zm106.37,17.75c-.66-.06-.7.03-.63.43.08.48.35.65.7.85,1.2.67,2.4,1.35,3.59,2.05,2.18,1.27,4.4,2.47,6.51,3.85.97.63,1.65,1.31,2.78.24.65-.61.43-.78-.14-1.04-.9-.4-1.92-.37-2.79-.94-2.71-1.78-5.54-3.35-8.44-4.8-.59-.3-1.23-.5-1.59-.63ZM21.76,327.28c.2-.68.41-1.27.54-1.87.43-1.98,1.84-3.45,2.65-5.24,1.56-3.45,3.53-6.69,5.1-10.14,1.27-2.8,2.8-5.48,4.19-8.22.12-.23.53-.56.05-.79-.31-.14-.72-.14-.9.31-.08.18-.19.35-.28.53-1.28,2.64-2.58,5.27-3.82,7.93-.88,1.89-1.96,3.69-2.71,5.65-.67,1.77-1.56,3.43-2.48,5.08-1.02,1.81-2.16,3.57-2.83,5.57-.21.62-.04.87.5,1.2Zm177.43-11.03c.04.29.06.66.62.49.35-.11.73-.14,1.04.09,1.38.99,3.11,1.3,4.42,2.45,1.22,1.07,1.34,1.02,2.17-.37.32-.54.58-1.09,1.01-1.56.18-.2.51-.63-.03-.87-.55-.24-.4.27-.51.52-.27.6-.6,1.17-1.39.75-1.66-.88-3.5-1.48-4.76-3.01-.31-.38-.69-.71-.05-1.14.28-.19.14-.4-.04-.59-.12-.12-.3-.22-.41-.09-.86.97-1.71,1.96-2.07,3.33Zm-92.86-46.61c-.63,1.61-.59,2.97.67,4.19,1.35,1.31,2.78,2.43,4.64,2.89.31.08.84.77.94-.15.07-.6,1.29-1.27.01-1.84-1.6-.71-2.99-1.75-4.43-2.71-.89-.6-1.99-.92-1.83-2.38Zm2.41-55.24c0-1.35,0-2.7,0-4.06,0-.32.01-.53-.49-.57-2.9-.24-5.8-.08-8.71-.28-3.44-.24-6.9-.45-10.37-.42-1.09,0-1.48.41-1.63,1.35-.25,1.55-.67,3.05-1.22,4.52-.19.5-.23,1.01.13,1.64.39-.95.62-1.77.84-2.6,1.08-4.01.15-4.35,5.27-4.32,4.5.03,8.99.48,13.49.32.84-.03,1.4.43,1.75,1.15.5,1.03.5,2.18.93,3.25Zm17.58-16.58c.13-.63-.18-.85-.79-.78-.74.09-1.48.25-2.22.25-1.97,0-3.96.22-5.89-.49-.3-.11-.7.03-1.05.06.25.56-.25,1.04-.16,1.58.04.24.28.27.48.25,1.2-.1,2.36.25,3.54.25,1.82,0,3.64-.18,5.45-.23.67-.02.67-.4.63-.89Zm64.19,105.49c.67-.95.66-1.52-.52-2.16-2.25-1.22-4.46-2.52-6.72-3.73-.35-.19-.69-.38-1.12-.32-.24.03-.5.03-.57.32-.07.26.03.5.25.63,1.25.74,2.34,1.78,3.71,2.29,1.84.69,3.33,1.89,4.97,2.97Zm4.61,7.43c-.11-.15-.19-.36-.29-.37-1.03-.1-1.56-1.05-2.44-1.38-1.75-.66-2.16-.44-2.71,1.34-.15.48-.08.73.37.93.89.4,1.76.87,2.67,1.24.33.13.76.57,1.09.2.5-.58.87-1.28,1.32-1.96Zm-81.48-111.49q1.69.58.64,2.09c-.18.26-.37.51-.57.75-.73.88-1.54,1.73-.97,3.07,1.03-2.13,2.94-3.47,4.32-5.25.16-.21.58-.23.77-.02.22.24-.03.54-.19.72-1.7,1.85-2.74,4.25-4.81,5.8-.34.26-.28.58-.17.8,1.27-.67,2.06-1.79,2.91-2.85,1.01-1.26,2.02-2.53,2.98-3.82.35-.47.47-1-.4-1.04-1.5-.06-3.01.16-4.5-.25Zm31.87-133.25c-.34,1.57-.88,2.82-1.69,3.94-.14.19-.32.5.05.55,1.8.28,3.45,1.09,5.33,1.61-1.24-2.06-2.39-3.96-3.68-6.1Zm20.69,226.23c-.35,0-.58.33-.75.62-.59,1.01-1.14,2.04-1.67,3.09-.16.31-.67.86.14.97.65.09,1.37,1.31,1.99.06.44-.89,1.06-1.62,1.6-2.43.74-1.11.12-2.23-1.3-2.31Zm-21.99-192.48c1.05-.26,1.81.21,2.65.23.78.02,1-.28.87-.98-.14-.74-.17-1.5-.29-2.22-.21-1.26-.3-2.58-.89-4.04-.47,2.56-1.19,4.74-2.34,7.02Zm-35.53,136.26c-2.34.05-4.43-.84-6.58-1.54-.61-.2-1.56-.64-.81.74.12.22,0,.46-.17.65-.93,1.05-.14,1.04.64,1.04,2.32-.01,4.67.26,6.91-.89Zm83.28,98.02c.02.1.03.21.05.31,1.45-.44,2.96-.75,4.33-1.36,1.06-.48,1.13-1.35.53-2.26-1.12-1.71-1.96-3.56-2.7-5.47-.81-2.07-1.75-4.1-2.92-6.01-.13-.21-.21-.49-.5-.27-.23.17,0,.34.09.51.55,1.18,1.08,2.37,1.63,3.54,1.22,2.57,2.42,5.14,3.68,7.68.41.82.29,1.25-.56,1.64-1.21.56-2.27,1.43-3.63,1.68Zm-103.85-98.68c1.92,1.1,3.84,1.05,5.69,1.28,1.39.17.79-.91.91-1.52.16-.84-.3-1.04-1.02-.93-1.8.28-3.6.59-5.59,1.17Zm77.27-85.87c.18.08.35.16.53.24,3.55-6.19,5.99-12.79,7.11-19.87-1,3.4-1.89,6.83-3.08,10.19-1.17,3.31-3.12,6.26-4.56,9.44ZM22.43,261.09c-.03,1.8.32,2.06,1.79,1.42.32-.14.35-.32.43-.6.25-.9.37-1.92.91-2.63.65-.85.15-.94-.37-1.38-.76-.65-.81.14-1.11.42-.23.21-.34.59-.6.71-.89.44-1.06,1.19-1.05,2.06Zm75.65-24.2c2.32,0,2.26.01,1.9-1.8-.12-.63-.39-.66-.86-.65-.71.01-1.43.04-2.14,0-.69-.04-1.44.05-1.35.84.08.69-.09,1.95,1.39,1.64.34-.07.71-.01,1.07-.01Zm39.5,81.73c2.15-.73,2.3-.73,4.3.03.18.07.41.28.52.07.31-.59.2-1.25.1-1.86-.08-.52-.56-1.07-1.03-.99-1.03.17-2.07.49-3.01.94-.55.26-.48,1.09-.88,1.8Zm-9.79-206.75c.39-.24.76-.44,1.08-.79,1.36-1.5,1.92-3.41,2.7-5.18.89-2.03,1.6-4.15,1.99-6.36.05-.29.06-.46-.18-.56-.3-.13-.41.05-.48.33-.06.23-.2.43-.25.66-.9,4.25-2.46,8.23-4.86,11.91Zm25.52,121.64c-.11.29-.22.58-.32.87-.68,2.18-1.09,2.5-3.37,2.49-.62,0-1.16.2-1.72.38-.46.15-.51.59-.4,1,.12.44.52.31.8.27,1.47-.24,2.93-.53,4.39-.78.25-.04.52-.08.52-.38,0-1.28.04-2.56.09-3.85Zm-20.92,4.89c0,.09,0,.19,0,.28.14.04.28.1.43.12,2.73.5,5.48.25,8.23.28.66,0,.68-.36.66-.84-.03-.73-.47-.85-1.06-.75-1.79.31-3.59.47-5.41.55-.95.04-1.9.23-2.85.35Zm20.58-25.61c-.05-1.18.08-2-.22-2.86-.19-.56-.49-.54-.88-.49-2.37.36-4.75.64-7.14.8-.92.06-1.83.34-2.77.38,2.36.13,4.71.23,7.05.1,1.66-.09,2.93.34,3.97,2.06Zm-11.75,129.67v.36h13.26c0-.17,0-.35,0-.52-4.42-.38-8.83.42-13.25.16Zm2.26-24.77c1.4-1.4,3.09-1.36,4.85-1.01.23.05.49.48.71.08.17-.31.13-.67-.11-1.01-.72-1.04-1.99-1.34-3.16-.73-.37.19-.65.48-1.14.56-1.3.2-1.55.73-1.16,2.11Zm-10.67-14.3c.03.21.02.43.1.62,1.39,3.69,2.15,7.54,3.01,11.37.13.56-.06,1.46.82,1.19.65-.2.25-.95.09-1.52-.63-2.29-1.47-4.51-2.04-6.82-.41-1.67-.93-3.36-1.97-4.84Zm-58.47,38.65c-.41-.85-1.23-.6-1.85-.73-2.49-.52-4.98-1.18-7.56-1.03-.22.01-.53-.11-.62.18-.13.4.3.4.49.54.14.11.37.11.57.13,2.97.33,5.93.86,8.98.9Zm10.94-201.32c.61,2.92,7.61,12.99,9.49,13.64-3.66-4.2-6.66-8.87-9.49-13.64Zm117.82,189.35c1.1.01,1.7-.82,2.46-1.31,1-.64.96-1.47.39-2.43-.5-.84-.8-1.79-1.34-2.6-.37-.55-.57-1.41-1.55-1.39.57,1.1,1.16,2.16,1.68,3.24.77,1.62.67,2.29-.28,3.25-.42.42-1.1.51-1.35,1.23Zm-62.46-132.76l-.16-.29c-1.98.76-3.97,1.51-5.95,2.27,1.21.2,2.37.2,3.52.2.33,0,.69-.02.84-.34.38-.8,1.08-1.31,1.76-1.84Zm2.41-1.43c1.48-.64,2.98-.48,4.49-.26.32.05.68.49.97.11.31-.4-.05-.81-.16-1.22-.25-.94-1-.57-1.45-.45-1.35.37-2.67.89-3.85,1.81Zm-16.96,15.45c-.07-.82-.21-1.05-.9-1-1.88.14-3.79.12-5.64-.23-.82-.16-1.38.06-2.27.45,2.35.63,4.47.6,6.56.32.78-.1,1.46-.16,2.25.46Zm5.88,4.7c0-1.15.31-2.25.39-3.39.07-.96.48-1.53,1.58-1.68,1.23-.17,2.45-.18,3.68-.21.71-.02,1.45.12,2.46-.2-2.4-.21-4.5.05-6.59-.29-1.45-.24-1.46-.09-1.4,1.43.01.31-.01.64-.1.94-.32,1.13-.09,2.26-.02,3.4Zm5.94-114.74c-.08,0-.17-.01-.25-.02-.67,1.1-1.36,2.18-2.01,3.29-.19.32-.74.78-.27,1.06.54.31,1.39.2,1.62-.49.41-1.24.62-2.56.92-3.84Zm60.81,209.13c-1.27.94-2,2.27-2.6,3.69-.12.28-.32.61.11.8.4.17.59-.15.72-.43.59-1.34,1.59-2.49,1.77-4.06ZM85.14,102.03c-.21,1.41-.7,2.75-.54,4.16.05.47.51.71.96.54.23-.09.8-.08.52-.69-.56-1.27-.79-2.62-.94-4.01Zm35.52,197.13c.15-.76.5-1.42.68-2.13.08-.32.46-.84-.2-.93-.44-.06-.98-.47-1.38.31-.65,1.27.37,1.89.91,2.75Zm58.56-5.92c-.83.79-1.14,1.51-1.49,2.19-.08.17-.35.56,0,.56,1.04,0,1.71.86,2.78.99-.99-.99-1.88-1.99-1.29-3.75Zm8.44-27.66c.04-.54-.47-.95-.33-1.5.05-.19,0-.42-.26-.46-.22-.03-.34.16-.46.31-.79.95-.35,2.13-.58,3.18-.04.18.27.31.31.23.36-.66,1.2-.96,1.33-1.77Zm-67.03-122.48c1.39.29,2.72.79,4.19.75-.84-.6-1.62-1.23-2.65-1.54-.82-.25-1.21.01-1.54.79Zm22.91,96c.69-.16,1.53-.36,2.41-.29.32.03.79.11.71-.48-.06-.44-.44-.64-.79-.51-.85.31-1.72.17-2.57.21-.35.02-.73-.04-.74.51-.01.65.44.52.98.56Zm-54.98-141.61c-.33,2.73.32,5.25,1.72,7.6-.75-2.49-1.68-4.95-1.72-7.6Zm113.02,220.26c-.16-.02-.32,0-.4.16-.09.18.03.3.18.37,1.01.51,1.82,1.35,2.91,1.73.21.07.44.3.62.02.13-.2.11-.5-.1-.64-1.01-.67-2.1-1.18-3.21-1.65Zm-106.08-118.56c0,.11.01.21.02.32h11.89v-.32h-11.91Zm53.62-96.54s.01,0,.02,0c0-.51,0-1.03,0-1.54,0-.28,0-.58-.41-.56-.4.02-.38.33-.38.61,0,1.05,0,2.1,0,3.15,0,.21-.07.54.27.55.32.01.49-.24.5-.54.02-.55,0-1.11,0-1.66Zm-56.89,221.82c.55-2.04.97-4.12.66-6.29-.82,2.01-.46,4.18-.66,6.29Zm46.78,11.54c-.14.04-.28.07-.42.11.56,2.02.59,4.18,1.89,6.01-.49-2.04-.98-4.08-1.47-6.12Zm-54.08-246.77c-.99.77-1.25,2.8-.68,4.38.23-1.5.44-2.83.68-4.38ZM20.5,267.65c0-.38-.18-.59-.44-.71-.28-.13-.46.1-.58.28-.31.45-.57.94-.86,1.4-.12.19-.44.34-.22.57.13.13.47.19.66.12.82-.28,1.16-.99,1.44-1.67Zm185.95,49.57c.08-.19.12-.24.11-.26-.77-1.31-2.42-1.38-3.38-2.42-.01-.01-.22.1-.26.18-.04.08-.03.27.03.31,1.19.69,2.2,1.69,3.51,2.18Zm-116.25,24.5c.58-2.85,1.16-5.69.78-8.61-.2,2.88-.46,5.75-.78,8.61Zm92.96-70.65c-.34-.48.8-1.14-.11-1.38-.92-.24-1.94.08-2.91-.26.85.83,1.88,1.25,3.02,1.64Zm-95.36-53.36c2.18.14,4.35.9,6.51,0h-6.51Zm53.41,2.28c-2.94-.19-5.89,0-8.83-.23,2.94.44,5.88.31,8.83.23Zm26.14-83.84c-.1-.06-.19-.11-.29-.17-.86,1.5-1.71,3-2.57,4.5,1.42-1.18,2.07-2.79,2.86-4.33ZM16.23,277.67c0-1.82.51-3.58.61-5.39-.91,1.72-.82,3.55-.61,5.39Zm121.18-172.28c.1.02.2.04.29.05.34-1.74.88-3.45.99-5.23-.11-.02-.23-.04-.34-.06-.31,1.75-.63,3.49-.94,5.24Zm21,93.01c-2.28.36-4.63.09-6.87.75,2.28-.39,4.64.04,6.87-.75Zm-68.4,144.41c-1.14-.66-2.18.15-3.28.12,1.11.14,2.21.26,3.28-.12Zm69.58-189.2c1.45-.86,2.14-2.3,2.78-3.79-.93,1.26-1.85,2.53-2.78,3.79Zm-40.42-11.32c-.97-.19-1.44.43-1.96,1.01-.31.35,0,.49.17.68.29.34.36,0,.49-.17.39-.53,1.03-.86,1.3-1.52Zm38.96,200.33c-.65-.24-1.17-.48-1.77-.41-.23.03-.52,0-.54.3-.02.24.18.46.42.5.62.11,1.25.16,1.9-.4Zm-62.81-124.67c1.42.11,2.83.73,4.28.4,0-.13.01-.26.02-.4h-4.3Zm41.21-108.98c.75-1.05.79-1.94.92-2.8-.63.7-1.02,1.49-.92,2.8Zm1.36,91.35s0-.09,0-.13h-2.49s0,.09.01.13h2.49Zm-13.78.26c.77-.88,1.69-.13,2.3-.73-.72.27-1.78-1.12-2.3.73Zm-98.45,63.08c.38.76-.48,1.46-.14,2.34.35-.86.8-1.57.14-2.34Zm-8.86,20.86c.31-.77-.14-1.39-.3-2.34-.38,1.05.11,1.67.3,2.34Z" fill="#fff"/><path d="m134.76,27.03c-1.54.29-3.06-.18-4.53-.4-1.83-.27-3.67-.39-5.51-.59-1.85-.2-3.72.08-5.59-.25-1.31-.22-2.67.22-4.02.28-1.56.07-3.1.68-4.65.67-1.86-.01-3.46.68-5.16,1.18-2.03.6-4.02,1.29-6.16,1.54-2.63.31-4.95,1.67-7.39,2.65-5.56,2.24-10.53,5.47-15.29,9.03-2.06,1.54-3.39,3.8-4.86,5.92-1.27,1.84-2.7,3.6-4.32,5.19-1.64,1.61-3.15,3.36-4.56,5.21-1.46,1.92-3.32,3.44-5.77,4.02-.24.06-.54.1-.57.35-.05.34.3.4.55.51.78.36,1.65.54,2.3,1.18.5.48.88.89-.08,1.28-.48.19-.43.49-.05.79.76.63,1.49,1.3,2.29,1.89.42.31.99.51.87,1.13-.14.68-.78.54-1.28.58-.1,0-.2.08-.44.19,1.23.98,2.4,1.88,3.43,2.95.67.69.77,1.3-.03,1.89-.35.26-.49.36-.14.78.29.34.52.86.51,1.3-.04,1.69,1.22,1.72,2.34,1.94,2.12.41,4.28.41,6.41.26,1.87-.13,3.73-.57,5.59-.88-.75.8-1.83.76-2.75.89-4.1.55-8.21.5-12.29-.47-.04.62.25,1.09.47,1.58.15.34.56.64.29,1.07-.29.46-.78.29-1.21.29-.18,0-.36-.06-.64-.12.27.46.42.88.7,1.18.86.91.46,1.19-.65,1.19.75.96.42,1.38-.59,1.54-.42.07-.85.23-1.22.44-.43.25-.68.09-.88-.25-.69-1.17-1.74-1.9-2.97-2.38.08-.33.3-.28.52-.35.43-.14,1.2.12,1.23-.39.03-.45-.43-.99-.89-1.31-.31-.22-.76-.23-.93-.71.43-.41,1.02-.05,1.48-.31-.13-.65-1.18-.8-.9-1.74.4.17.77.33,1.46.63-.54-.74-.9-1.19-1.19-1.67-.12-.2-.4-.46-.11-.75.26-.26.49-.18.73.04.24.22.53.5.82.22.35-.34-.07-.69-.22-.93-.68-1.05-1.51-2.01-1.7-3.32.5-.13.61.55,1.21.39-.65-1.47-1.9-2.61-2.25-4.21.29-.19.44.08.57.23.37.42.66.05.94-.09.52-.27.05-.61-.07-.77-.61-.82-1.29-1.59-1.94-2.39-.26-.33-.72-.53-.71-1.17.78.41,1.54-.28,2.48.38-.71-1.07-1.32-1.84-2.14-2.67,5.21-1.61,7.5-6.32,11-9.71-3.7.78-7.39,1.7-11.12,2.28-1.64.25-3.37.67-5.11.13-.71-.22-1.55-.08-2.32-.02-2.73.23-5.35-.63-8-.75-4.33-.2-7.94-2.22-11.75-3.75-1.39-.56-2.72-1.5-3.81-2.54-2.78-2.66-5.84-5.06-8.2-8.15-1.16-1.52-2.27-3.07-2.89-5.02,2.12.75,4.14.79,6.2.47,2.96-.47,5.73-1.62,8.62-2.36.96-.25,1.73-.85,2.7-1.13,3.08-.87,6.17-1.59,9.39-1.51.86.02,1.75.09,2.58.32.99.27,1.92.66,2.87-.39-.79,1.27-.09,1.58.84,1.97,3.42,1.45,6.71,3.17,9.78,5.26.05.03.05.13.07.17-6.37-1.15-12.27-3.93-18.59-5.63.57-.16,1.09-.17,1.61,0,3.5,1.19,7.01,2.38,10.5,3.6,1.22.43,2.47.7,3.82,1-.31-.71-.92-.77-1.4-1-1.98-.94-3.77-2.33-6.04-2.64-.18-.02-.4-.13-.52-.26-1.51-1.74-3.65-1.86-5.62-1.77-1.67.07-3.41.27-5.07.71-2.77.73-5.58,1.32-8.27,2.28-2.39.85-4.83,1.38-7.28,1.92-1.26.28-2.5.3-3.76.01-.42-.1-.84-.13-1.3.02.44,1.31,1.49,2.11,2.28,3.04,1.71,2.04,3.57,3.97,5.49,5.81,2.85,2.74,6.2,4.64,9.83,6.28,3.91,1.77,8.03,2.07,12.1,2.89,3.19.65,6.4.63,9.61.52,2.48-.09,4.86-.88,7.28-1.41,1.87-.41,3.74-.87,5.6-1.35,1.07-.28,1.87-1.01,2.58-1.83,1.45-1.68,2.73-3.44,3.65-5.5.69-1.53,2.08-2.62,3.48-3.51,2.26-1.44,4.57-2.82,6.77-4.32,2.22-1.52,4.66-2.61,6.91-4.03.24-.15.35-.3.24-.72-5.14,2.54-10.77,3.82-15.75,6.72,1.26-1.57,2.95-2.49,4.72-3.19,3.14-1.25,6.23-2.62,9.34-3.93.52-.22.31-.35.17-.67-.71-1.62-2.1-2.58-3.4-3.65-2.69-2.23-5.79-3.69-9.03-4.83-3.13-1.1-6.36-1.09-9.55-.1-1.84.57-3.76.82-5.55,1.54-2.27.92-4.31,2.28-6.49,3.39-2.04,1.04-3.71,2.66-5.86,3.66,2.18.79,4.31,1.28,6.65,1.6-.53-.76-1.48-.49-2.01-1.34,2.45.84,4.77,1.53,7.18,1.82-3.38.85-12.85-.95-14.21-2.75,1.53.95,2.58-.02,3.72-.75,3.42-2.2,6.81-4.49,10.58-6.06,2.5-1.04,5.16-1.58,7.84-2.06,2.21-.4,4.35-.41,6.48.25,2.9.9,5.72,2.04,8.3,3.64,2.34,1.45,4.72,2.93,6,5.55.17.34.34.51.71.46.78-.1,1.1.31,1.1,1.07,1.87-.69,3.64-1.52,5.49-1.99,2.16-.54,4.28-1.25,6.41-1.89,2.22-.67,4.48-1.13,6.72-1.66,1.53-.36,3.12-.46,4.7-.59,2.89-.23,5.78,0,8.66-.31,1.28-.14,2.72-.1,4.01.2,2.48.56,5.05.74,7.47,1.58.15.05.31.06.37.24Z" fill="#fff"/><path d="m51.64,200.51c.06-.85.76-1.36,1.17-1.98,1.12-1.72,1.42-3.68,1.74-5.59.28-1.64.75-3.13,1.65-4.49.65-.99,1.28-1.98,1.67-3.1.11-.33.19-.61.62-.55.31.04.49-.18.48-.4-.15-1.94,1.27-3.17,2.26-4.46,1.12-1.48,2.37-2.93,3.92-4.05.23-.16.42-.4.78-.01-2.83,1.89-4.47,4.74-6.14,7.57-.69,1.17.04,2,.66,2.75,1.44,1.74,2.48,3.67,3.3,5.76.46,1.16,1.32,2.13,1.72,3.35-.59.15-.86-.08-1.3-.5-1.56-1.52-2.09-3.58-3.05-5.41-.37-.71-.85-1.31-1.39-1.81-.57-.52-.88-1.14-1.18-1.83-2.26,3.17-3.6,6.61-4.27,10.41-.29,1.62-.98,3.36-2.66,4.3l.03.03Z" fill="#fff"/><path d="m78.44,194.61v-6c-.12,0-.23-.01-.35-.02-.87,2.34-.68,4.85-.94,7.29-.28,2.54-.45,5.11-.19,7.62.26,2.53-.13,5.08.44,7.58-.67-.97-.78-2.1-.81-3.2-.07-3.27-.16-6.56-.02-9.83.13-2.99.52-5.96.88-8.93.08-.66.5-1.8.93-1.74.8.12.4,1.12.42,1.73.07,1.82.02,3.65.02,5.48-.13,0-.25,0-.38,0Z" fill="#fff"/><path d="m25.33,42.01c9.49,3.08,19.12,4.82,29.1,3.5-10.05,1.81-19.67-.07-29.1-3.5Z" fill="#fff"/><path d="m161.97,210.87c.92-2.54,1.55-5.15,2.01-7.81.37-2.18.42-4.43,1.41-6.5.59,5.05.74,10.09.08,15.14.12-4.41-.18-8.81-.18-13.23-.62,1.63-.71,3.36-1.03,5.03-.46,2.42-1.09,4.8-1.69,7.19-.1.41-.35.36-.62.16,0,0,.01.02.01.02Z" fill="#fff"/><path d="m145.58,0c.39.86-.2,1.36-.33,1.91-.61,2.59,0,5.15.16,7.69.13,2.08-.18,4.24.69,6.32,1.62,3.88,2.85,7.91,4.68,11.71.39.82.99,1.5,1.55,2.45-.63-.14-.82-.48-1.04-.83-2.07-3.34-3.02-7.17-4.63-10.7-1.53-3.37-1.35-6.92-1.66-10.44-.15-1.66-.22-3.32-.23-4.98,0-1.06.32-2.02.82-3.13Z" fill="#fff"/><path d="m171.78,208.23c-.3-1.59.45-3.01.83-4.47.77-3.01,1.38-6.04,1.85-9.1.16-1.05.35-2.07.24-3.25-1.16,2.23-1.41,4.64-2.4,6.81.75-2.9,1.29-5.86,2.65-8.76.51.73.36,1.39.3,1.96-.39,3.71-.9,7.41-1.9,11.02-.53,1.93-1.04,3.87-1.56,5.8,0,0,0,0,0,0Z" fill="#fff"/><path d="m173.37,216.23c-.89,1.13-1.76,2.28-2.68,3.38-.44.53-.21.71.3.75,4.95.31,9.93-.88,13.55-5.05.08,1.03-.54,1.57-1.19,2.01-2.25,1.53-4.6,2.9-7.36,3.26-1.75.23-3.52.52-5.28.11-.67-.16-.97-.55-.45-1.21.94-1.17,1.78-2.42,3.11-3.25Z" fill="#fff"/><path d="m154.56,20.73c-.22-6.8-.39-13.58-.73-20.58.36.4.57.65.54,1.01-.16,1.64.32,3.24.26,4.87-.16,4.51.45,9,.27,13.5-.02.41.1.84-.34,1.2Z" fill="#fff"/><path d="m186.13,163.35c-.17-.52.24-.52.55-.7,1.16-.65,2.29-1.35,3.42-2.27-.55-.32-1.03-.24-1.46-.18-3.28.45-5.85-1.03-8.24-2.99-.2-.17-.7-.42-.34-.73.47-.41.37.29.58.43,1.49,1.04,3.02,1.94,4.78,2.52,2.33.78,4.42.54,5.68-.17-.52,1.65-2.55,3.3-4.99,4.06,0,0,.03.03.03.03Z" fill="#fff"/><path d="m167.02,7.31c-.13,1.58.19,3.12.27,4.69.01.25.14.68-.22.71-.48.04-.32-.43-.34-.71-.18-2.48-.27-4.96-.35-7.45-.04-1.23-.04-2.53-.44-3.75-.06-.2-.15-.5.18-.59.28-.07.26.23.37.37.16.2.25.41.22.66-.19,2.04.54,4.03.3,6.06Z" fill="#fff"/><path d="m83.7,25.91c-.05,1.12-.49,1.81-.88,2.45-1.44,2.34-3.41,4.12-6.07,4.96-.89.28-1.88.22-2.8.42-1.23.26-2.38.76-3.55,1.22.92-.79,1.99-1.25,3.18-1.53,1.97-.45,4.09-.43,5.73-1.91,1.62-1.46,3.37-2.8,3.92-5.08.03-.13.2-.23.48-.54Z" fill="#fff"/><path d="m51.61,200.48c-1.04,1.02-.4,2.41-.8,3.61-.62,1.81-1.65,3.34-2.78,4.83-.12.15-.25.63-.61.27-.33-.33.09-.46.23-.65,1.04-1.42,2.03-2.87,2.65-4.54.22-.6.12-1.17.18-1.76.07-.79.18-1.56,1.17-1.72,0,0-.03-.03-.03-.03Z" fill="#fff"/><path d="m66.34,175.17c.98-.51,2.05-.67,3.11-.65,1.4.02,2.75-.25,4.12-.41,1.63-.19,2.86-1.15,4.22-2.17-.61,1.57-3.69,2.6-5.32,2.88-2.04.35-4.1-.08-6.13.36Z" fill="#fff"/><path d="m176.24,171.22c1.46.65,2.67,1.7,4.28,2.08,1.55.37,3.04.31,4.58.05-3.1,1.25-7.27.25-8.86-2.14Z" fill="#fff"/><path d="m175.3,213.42c.85-.73,1.7-1.46,2.55-2.19-1.61.99-3.42,1.58-4.96,2.74.32-.33.58-.74.96-.98,1.22-.79,2.49-1.52,3.73-2.27.36-.22.87-.39,1.11-.1.37.44-.22.68-.47.91-.84.75-1.48,1.74-2.47,2.33-.15-.14-.3-.28-.44-.42Z" fill="#fff"/><path d="m69.57,221.15c-2.2-2.56-4.01-5.41-6.43-8.09,1.2.52,6.05,6.64,6.43,8.09Z" fill="#fff"/><path d="m170.78,179.95c-1.44.09-2.79.25-3.95-1.13-.51-.61-1.79-.57-2.72-.82,0,0,0,0,0,0,1.85-.07,3.65.56,5.51.34.51-.06,1.04.26,1.53-.42.31-.44.72.39,1.14.69h-4.98c.5.78,1.04,1.11,1.82,1.12.55,0,1.13-.14,1.62.25l.03-.04Z" fill="#fff"/><path d="m179.77,176.83c-2.15.99-4.43,1.04-6.74.85,2.25-.28,4.51-.46,6.74-.85Z" fill="#fff"/><path d="m182.25,155.11c-.61.75-3.13.62-5.16-.36,1.72.1,3.43.42,5.16.36Z" fill="#fff"/><path d="m21.77,200.52c-.16.21-.42.5-.56.29-.73-1.03-.97-.05-1.35.3-.23.21-.44.45-.66.68-.14.14-.3.25-.52.2.32-.37-.34-.53-.18-.87.41-.9,2.06-1.39,2.91-.85.13.08.25.17.37.26Z" fill="#fff"/><path d="m89.4,72.9c.13-.2.21-.48.4-.57,1.7-.89,3.42-1.75,5.14-2.63-.33.83-1.21.95-1.84,1.35-1.16.73-2.45,1.24-3.69,1.85Z" fill="#fff"/><path d="m71.59,217.17c-1.01-1.16-1.13-2.62-1.56-3.97.88,1.19,1.18,2.6,1.56,3.97Z" fill="#fff"/><path d="m170.75,179.98c1.98.46,2.75,2.34,4.16,3.46-.55.09-.78-.32-1.07-.6-.92-.86-1.66-1.93-2.9-2.42-.17-.07-.32-.25-.15-.48,0,0-.03.03-.03.03Z" fill="#fff"/><path d="m78.88,200.19c-.89-1.09-.19-2.32-.44-3.47.14,0,.28-.02.42-.03,0,1.17,0,2.34,0,3.52,0,0,.02-.02.02-.02Z" fill="#fff"/><path d="m67.95,213.76c.48-.27.66.18.84.42.73.94,1.56,1.82,1.83,3.08-.89-1.17-1.78-2.33-2.67-3.5h0Z" fill="#fff"/><path d="m67.95,213.75c-.87-1.28-2.15-2.18-3.13-3.35.25-.29.42-.07.57.08.79.77,1.57,1.56,2.37,2.33.29.28.39.58.19.95,0,0,0,0,0,0Z" fill="#fff"/><path d="m173.75,210.91c-.19,1.06-.85,1.88-1.35,2.79,0-1.15.66-1.98,1.35-2.79Z" fill="#fff"/><path d="m56.02,204.33c-.49-.35-1.07-.53-1.26-1.18-.07-.25-.46-.35-.4-.68.01-.07.23-.17.28-.14.31.17.59.37.88.56-.68.76.43.83.49,1.44Z" fill="#fff"/><path d="m60.03,41.63c-.64.49-1.27.98-2.05,1.58.55-1.09.73-1.24,2.05-1.58Z" fill="#fff"/><path d="m64.61,38.18c-.9.57-1.82,1.08-2.62,1.77.55-1.08,1.43-1.66,2.62-1.77Z" fill="#fff"/><path d="m62.93,198.85c-.44-.61-.74-1.39-1.7-1.39-.17,0-.35-.22-.3-.44.1-.37.34-.18.55-.09.86.36,1.33,1,1.44,1.92,0,0,0,0,0,0Z" fill="#fff"/><path d="m104.02,159.4c-.14,1.13-1.2,1.61-1.83,2.36-1.36,1.62-2.28,3.34-2.53,5.44-.14,1.16-2.04,3.18-3.2,3.38,2.06-1.35,2.64-3.45,3.29-5.66.62-2.11,2.1-3.85,3.41-5.62.15-.2.38-.29.63-.13l.22.22Z" fill="#fff"/><path d="m99.24,48.83c-1.08-.41-2.62.03-3.94-.79-.64-.4-1.12-.92-1.32-1.6-.18-.62-.06-1.35.83-1.11.64.18.69-.18.81-.52,1.11-3.15,3.27-5.73,4.77-8.66.44-.86,2.97-.75,3.67.19.99,1.32,1.83,2.67,1.44,4.5-.2.96-1.22,1.38-1.32,2.15-.1.77.63,1.54.35,2.48-.54,1.75-2.87,3.37-5.28,3.37Zm-3.04-1.93c1.95-.03,3.79.26,5.51-.59.7-.35,1.15-.88,1.03-1.75-.13-.95-.77-1.43-1.6-1.46-.8-.03-1.59-.2-2.32-.4-.71-.19-.83.12-1.02.54-.53,1.17-1.03,2.36-1.59,3.66Zm2.95-5.76c.94-.08,1.67.24,2.44.39,1.09.21,2.04-.35,2.21-1.33.22-1.31-.5-2.74-1.5-2.89-.35-.05-.71-.12-1.02.34-.73,1.07-1.49,2.11-2.12,3.49Z" fill="#fff"/><path d="m128.34,40.68c.22,1.15.79,1.72,1.36,2.33.52.55,1.07,1.17.82,2.05-.24.83-.73.94-1.23.24-.79-1.08-1.5-2.21-2.26-3.31-.51-.73-1.05-1.44-1.64-2.25-.67,1.63-.85,3.22-1.21,4.75-.1.42,0,1.02-.6.94-.4-.06-.58-.77-.48-1.06.75-2.29.81-4.78,2.06-6.94.45-.78,1.05-1.37,1.72-1.89,1.24-.96,3.34-.54,4.37.82,1.25,1.64,1.18,3.22-.16,4.29-.81.65-1.66.64-2.74.04Zm-2.51-2.05c1.23-.04,2.17.53,3.21.72.95.17,1.4-.32,1.25-1.3-.16-1.07-.94-1.51-1.77-1.67-.73-.14-1.44.36-1.83,1.01-.23.38-.54.67-.87,1.24Z" fill="#fff"/><path d="m146.11,41.49c-.35,2.02-.23,4.09-.57,6.11-.08.47-.36.83-.81.93-.54.12-.72-.33-.93-.74-1.13-2.17-2.28-4.31-3.71-6.31-.14-.19-.2-.51-.45-.48-.32.03-.36.34-.39.63-.13,1.31-1.12,2.35-1.17,3.69,0,.18-.19.39-.41.33-.19-.05-.29-.24-.33-.46-.15-.78.14-1.5.32-2.21.35-1.36.93-2.66,1.08-4.08.03-.28.15-.72.6-.8.48-.08.52.38.59.61.53,1.77,2.18,2.75,3.06,4.28.27.47.26,1.09.76,1.43.15.1.09.44.36.39.27-.05.39-.3.36-.55-.16-1.2.36-2.35.3-3.54-.03-.49-.15-1.21.58-1.21.66,0,.76.66.76,1.24,0,.24,0,.48,0,.72Z" fill="#fff"/><path d="m114.28,45.25c-2.23,0-3.6-1.14-3.61-3.01,0-1.63,2.11-3.91,3.66-3.87,2.3.05,3.34,1.11,3.43,3.18.09,2.02-1.57,3.69-3.49,3.7Zm1.58-3.47c.06-.97-.08-1.78-1.34-1.77-1.01,0-2.2,1.06-2.22,1.98-.02,1.24.38,1.6,1.77,1.61,1.24,0,1.78-.54,1.79-1.81Z" fill="#fff"/><path d="m101.88,67.67c.62-2.26.59-4.98,1.5-7.51.18-.5-.04-1.05.32-1.49.19-.23.09-.78.67-.6.57.18.59.57.46,1.03-.21.79-.41,1.59-.66,2.36-.09.28-.22.57.05.75.24.16.51.01.77-.15,1.17-.74,2.4-1.39,3.3-2.49.17-.21.39-.43.64-.53.2-.08.4-.45.71-.11.31.34.11.59-.14.81-.88.8-1.74,1.64-2.68,2.36-1.63,1.26-1.66,1.24-.27,2.81.34.39.73.74,1.1,1.1.31.3.33.62.1.97-.31.47-.63.12-.92-.01-1-.46-1.3-1.58-2.1-2.22-.24-.19-.39-.6-.76-.48-.39.13-.37.53-.44.89-.26,1.26-.57,2.5-.87,3.75-.05.21-.17.41-.38.41-.27,0-.37-.25-.39-.5-.01-.28,0-.56,0-1.16Z" fill="#fff"/><path d="m129.91,52.24c.23,1.9-.93,3.11-1.81,3.42-1.3.46-3.29-.15-4.05-1.32-.81-1.26-.62-2.65-.18-3.99.62-1.85,1.58-2.66,2.91-2.3,2.18.59,3.01,1.21,3.13,3.36.02.28,0,.56,0,.84Zm-1.4.19c.08-1.09.35-2.1-.71-2.75-.93-.57-2.14-.38-2.91.45-.71.77-.4,2.99.18,3.61.62.68,1.35,1.07,2.32.74,1.1-.37,1.27-1.19,1.12-2.06Z" fill="#fff"/><path d="m110.6,54.29c.34-1.64.68-3.29,1.02-4.93.05-.27.05-.55.13-.81.26-.78-.11-.93-.79-.85-.27.03-.58.05-.83-.03-.4-.13-1.01-.24-1.02-.68-.01-.61.61-.26.94-.36,1.2-.36,2.42-.37,3.67-.3.83.05,1.65-.35,2.52.02.4.17.77.26.72.76-.07.59-.53.62-.99.58-.15-.01-.3-.11-.45-.15-1.39-.37-2.45.26-2.64,1.66-.23,1.71-.56,3.39-1.15,5.02-.03.07,0,.18-.05.23-.24.3-.23.92-.7.86-.58-.07-.16-.67-.4-1.01Z" fill="#fff"/><path d="m124.32,67.78c-1.21.06-1.62-.11-1.41-1.21.36-1.96,1.07-3.86.96-5.9-.03-.51.29-.98.68-.94.43.05.62.43.49,1.07-.33,1.61-.36,3.27-.67,4.89-.15.81.24.76.71.7.82-.11,1.62-.34,2.46-.27.49.04,1.1.09,1.16.59.06.54-.59.44-.98.59-1.22.46-2.54-.05-3.39.47Z" fill="#fff"/><path d="m134.18,57.95c1.47,2.33.46,4.51.58,6.61.02.44.18.94-.03,1.48-.12.33.55.61,1.07.68,1.01.12,1.95-.36,2.94-.3.41.03.87-.16,1.3.24-.68.87-1.72.68-2.57.84-.89.17-1.83.02-2.75.04-.73.02-1.01-.32-.98-1.01.05-1.06.04-2.13.12-3.19.03-.43.05-.79-.05-1.24-.3-1.31.15-2.59.35-4.14Z" fill="#fff"/><path d="m117.34,61.36c-.39,1.74-.79,3.52-1.19,5.29-.07.29-.25.56-.54.54-.42-.02-.28-.41-.27-.65.09-1.99.39-3.95.85-5.89.08-.34.33-.6.68-.52.74.16.19.8.47,1.23Z" fill="#fff"/><path d="m101.41,69.47c-.6-.7-.59-2.4.01-3.25,0,1.08,0,2.17-.01,3.25Z" fill="#fff"/><path d="m98.44,131.23c-1.62.03-2.5,1.26-3.49,2.22-1.59,1.54-3.29,3-4.28,5.07-.14.29-.49.48-.83.8.7-3.09,6.69-8.72,8.6-8.08Z" fill="#fff"/><path d="m122.64,128.52c-.08.92.89,1.86-.1,2.71-.78-.96-.02-1.85.1-2.71Z" fill="#fff"/><path d="m34.68,210.79c-.62.33-.86.02-1.13-.09-.62-.26-1.05-.5-1.54.35-.51.9-1.64.6-2.51.65-1.71.09-2.82-1.22-4.14-2.01-.32-.19-.62-.77-.38-1.28.21-.45.67-.33,1.06-.36.78-.06,1.44.33,2.16.52.96.26,1.86.61,2.92.62,1.27,0,2.42.71,3.55,1.61Z" fill="#fff"/><path d="m45.53,214.72c-.02.53-.36.57-.73.38-.74-.38-1.43-.84-2.17-1.21-1.58-.81-3.18-1.59-4.77-2.4-.26-.13-.73-.22-.56-.64.21-.53.72-.1.89,0,2.23,1.18,4.64,1.97,6.82,3.26.25.15.47.29.52.62Z" fill="#fff"/><path d="m151.06,174.19c-3.42,8.16-21.37,19.07-28.54,17.72,1.89-.43,3.34-1.79,5.15-1.94,1.67-.13,3.12-.77,4.64-1.29,2.82-.98,5.34-2.51,7.7-4.3,2.57-1.96,5.12-3.96,7.57-6.06.94-.8,1.62-1.92,2.35-2.95.28-.4.59-.74,1.13-1.18Z" fill="#fff"/><path d="m123.91,184.33c-9.81-.51-18.8-3.91-27.72-7.91.89-.45.88-.43,1.59-.12,1.19.53,2.29,1.26,3.54,1.65.71.23,1.43,0,2.21.33,2.06.88,3.99,2.06,6.11,2.82,2.38.85,4.83,1.32,7.27,1.9,2.32.55,4.69.8,7,1.32Z" fill="#fff"/><path d="m133.75,163.5c.04-.31.35-.32.54-.39.29-.12.63-.59.92-.17.3.42-.27.56-.47.79-.79.88-1.61,1.73-2.36,2.72,1.07-.23,1.98-.85,3.07-.94.33-.03.64-.13.84.17.22.34-.15.5-.32.66-1.49,1.36-2.97,2.7-4.27,4.26-.5.6-.84,1.36-1.54,1.79.3-1.46,1.39-2.4,2.33-3.41.61-.65,1.23-1.28,1.77-2.17-1.51.07-2.68.74-4.02,1.18,1.21-1.31,2.42-2.6,3.61-3.92.14-.15.84-.53-.09-.57Z" fill="#fff"/><path d="m130.19,172.34c.38.02-.85,1.06.38.59.4-.16.47.14.26.46-.31.47-.63.94-.87,1.48,1.86-1.04,3.28-2.7,5.28-3.49-1.71,1.68-3.68,3.05-5.59,4.48-.68.51-1.42.93-2.09,1.5.23-1.69,1.75-2.45,2.66-3.68-.32-.35-.7.19-1.01-.22.41-.29.34-.98.99-1.13Z" fill="#fff"/><path d="m96.21,179.08c-2.41-3.41-6.25-5.16-9.12-8.04,3.36,2.31,7.15,4.12,9.12,8.04Z" fill="#fff"/><path d="m94.81,173.02c-3.11-2.36-6.52-4.31-9.19-7.2-.13-.14-.31-.26-.16-.67,2.94,2.9,6.41,5.07,9.35,7.86Z" fill="#fff"/><path d="m147.85,173.85c1.46-2.39,3.48-4.34,5.03-6.66-1.06,2.68-3.28,4.5-5.03,6.66Z" fill="#fff"/><path d="m129.31,189.4c.67-.88,1.6-1.34,2.73-1.46-.91.49-1.82.98-2.73,1.46Z" fill="#fff"/><path d="m199.71,283.64c-.18,2.27-1.93,4.16-4.1,4.32-2.25.17-4.66-1.77-4.71-3.58-.07-2.76,1.36-4.83,3.35-4.84,3.22-.02,5.44,1.65,5.46,4.1Zm-.83.1c.05-.74.06-1.14-.37-1.37-.28-.15-.51-.1-.77.09-1.26.88-1.82,2.65-1.37,4.07.17.54.47.27.59.15.87-.95,1.6-1.99,1.92-2.93Z" fill="#fff"/><path d="m94.11,78.09c-1.08,1.65-1.35,3.65-2.44,5.27.68-1.83,1.06-3.78,2.44-5.27Z" fill="#fff"/><path d="m150.9,79.75c.99,1.34,1.68,2.82,2.21,4.38-.91-1.38-1.71-2.81-2.21-4.38Z" fill="#fff"/><path d="m44.75,269.19c-3.56,2.18-7.25,4.13-10.44,6.84,2.93-3.1,6.7-4.97,10.44-6.84Z" fill="#fff"/><path d="m40.34,275.28c1.41-2.02,2.9-3.94,4.86-5.45-1.69,1.76-3.1,3.77-4.86,5.45Z" fill="#fff"/><path d="m31.04,272.26c1.87-2.49,3.78-4.94,6.62-6.45-.66.58-1.34,1.13-1.98,1.73-1.39,1.3-2.71,2.66-3.76,4.27-.18.27-.42.63-.87.45h0Z" fill="#fff"/><path d="m33.26,290.56c.47.68-.04,1.3-.13,1.94-.23,1.67-.61,3.31-.64,5-.28-2.37.19-4.65.81-6.92l-.03-.03Z" fill="#fff"/><path d="m36.32,281.07c-.58,1.53-1.29,2.99-1.7,4.58.05-1.72.68-3.23,1.7-4.58Z" fill="#fff"/><path d="m31.04,272.26c.44.63-.23.96-.44,1.35-.47.89-1.1,1.7-1.76,2.49.46-1.43,1.41-2.59,2.2-3.84,0,0,0,0,0,0Z" fill="#fff"/><path d="m26.83,280.17c.73.73-.65,2.67,1.56,2.2-.22.57-.66.58-1.09.44-.38-.13-.48-.49-.47-.88.01-.55,0-1.1,0-1.76Z" fill="#fff"/><path d="m27.44,279.1c-.05-.87.51-1.49.97-2.15,0,.84-.51,1.48-.97,2.15Z" fill="#fff"/><path d="m33.58,277.81c-.87.69-1.64,1.49-2.5,2.23.83-.74,1.67-1.49,2.5-2.23Z" fill="#fff"/><path d="m33.29,290.59c.02-.82.53-1.53.54-2.36.2.87.22,1.7-.57,2.33,0,0,.03.02.03.02Z" fill="#fff"/><path d="m173.85,242.96c4.76.95,9.53,1.71,14.38.57-3.54,1.26-12.36.92-14.38-.57Z" fill="#fff"/><path d="m189.81,250.54l-7.27.85c2.32-.99,4.81-.81,7.22-1.24.02.13.03.26.05.39Z" fill="#fff"/><path d="m182.19,229.52c-3.1-.25-6.17-.7-9.18-1.47l.06-.35c3.04.61,6.08,1.21,9.12,1.82Z" fill="#fff"/><path d="m179.71,223.13c.9-1.01,2.18-.79,3.31-1.07-.98.76-2.24.6-3.32,1.04v.02Z" fill="#fff"/><path d="m179.7,223.1c-1.57.22-3.15.43-4.72.65,1.55-.43,3.08-1.09,4.73-.63,0,0,0-.02,0-.02Z" fill="#fff"/><path d="m184.12,225.81c-.86.75-2.25,1.22-3.73,1.12,1.46-.42,2.61-.76,3.76-1.09,0,0-.03-.03-.03-.03Z" fill="#fff"/><path d="m148.94,206.29c-1.01-.89-1.71-1.86-2.74-2.5-.5-.31-.92-.73-.98-1.41-.13-1.57-.3-3.13-.46-4.7-.06-.56.25-.68.72-.65,1.94.13,3.49.6,4.61,2.57,1.26,2.22,1.2,4.19.24,6.37-.19.44-.24.86-.85.6-.15-.06-.26-.13-.33.11-.31,1-2.2,2.1-3.21,1.89-.48-.1-.66-.37-.66-.84,0-1.05,0-2.1,0-3.16,0-.18.02-.44.14-.53.24-.19.45.05.6.21.64.7,1.63,1.02,2.06,1.93.14.28.39.19.84.09Z" fill="#fff"/><path d="m143.75,197.1c.86,3.1.6,6-1.54,8.56-.3.37-.57.78-1.01.98-.53.24-1.1.42-1.01-.53.02-.19-.06-.29-.14-.42-2.32-3.75.28-7.63,3.69-8.6Z" fill="#fff"/><path d="m144.65,205.98c-.21.37-.11.82-.18,1.24-.08.46.37,1.18-.37,1.31-.69.12-1.38-.18-1.91-.71-.2-.2-.22-.37-.07-.62.6-1.06,1.18-2.14,1.76-3.21.08-.15.16-.3.34-.27.24.04.26.25.27.45.03.59-.1,1.2.16,1.81Z" fill="#fff"/></g></svg>